<svg width="55" height="54" viewBox="0 0 55 54" fill="none" xmlns="http://www.w3.org/2000/svg">
<rect x="0.00616455" width="54" height="54" rx="27" fill="#0B1C35"/>
<g clip-path="url(#clip0_259_21970)">
<path fill-rule="evenodd" clip-rule="evenodd" d="M43.351 37.8L41.6764 36.3278C38.1416 41.795 31.8551 44.9648 25.2463 44.6122C18.6375 44.2597 12.7416 40.44 9.83704 34.6293C15.461 41.1169 29.914 39.7409 38.7723 33.7738L36.2184 31.5406C43.4367 28.6747 45.0876 24.7198 45.1223 24.6343C46.0896 29.0936 45.4617 33.742 43.3437 37.8035" fill="#94E7FF"/>
<path fill-rule="evenodd" clip-rule="evenodd" d="M8.00003 26.8235C7.99184 22.537 9.57378 18.3928 12.4529 15.1584L12.4748 15.137C12.5733 15.023 12.6718 14.9107 12.7758 14.8037C12.9582 14.6059 13.1406 14.4134 13.3413 14.2227C16.7607 10.8788 21.4003 9 26.2382 9C31.0762 9 35.7159 10.8788 39.1353 14.2227C47.3186 22.2162 36.7857 32.5482 23.834 32.1525V35.6387L12.6827 27.8251L23.834 20.0116V23.5316C27.5189 22.9845 34.0257 21.3661 32.1194 16.8427C29.4981 10.594 11.0665 12.0305 8.00003 26.8235Z" fill="#00C5FF"/>
</g>
<defs>
<clipPath id="clip0_259_21970">
<rect width="37.5652" height="36" fill="white" transform="translate(8 9)"/>
</clipPath>
</defs>
</svg>
