<svg width="55" height="54" viewBox="0 0 55 54" fill="none" xmlns="http://www.w3.org/2000/svg" xmlns:xlink="http://www.w3.org/1999/xlink">
<rect x="0.00616455" width="54" height="54" rx="27" fill="#110B0B"/>
<defs>
<pattern id="pattern0" patternContentUnits="objectBoundingBox" width="1" height="1">
<use xlink:href="#image0_259_21984" transform="scale(0.005)"/>
</pattern>

</defs>

<defs>
<linearGradient id="paint0_linear" x1="24.853" y1="27.852" x2="6.425" y2="2.633" gradientUnits="userSpaceOnUse">
<stop stop-color="#FF416C"/>
<stop offset="1" stop-color="#FF4B2B"/>
</linearGradient>
<linearGradient id="paint1_linear" x1="31.353" y1="34.318" x2="12.848" y2="8.995" gradientUnits="userSpaceOnUse">
<stop stop-color="#FF416C"/>
<stop offset="1" stop-color="#FF4B2B"/>
</linearGradient>
</defs>

<path transform="translate(8, 8)" d="M30.5887 4.42356C27.3588 1.67463 23.1473 0 18.5559 0C8.29631 0 0 8.27837 0 18.5157C0 23.0973 1.67826 27.2997 4.43314 30.5225L30.5887 4.42356Z" fill="url(#paint0_linear)"/>
<path transform="translate(8, 8)" d="M6.39664 32.4817C9.65816 35.2938 13.9013 37 18.5561 37C28.8157 37 37.112 28.7216 37.112 18.4843C37.112 13.8395 35.4021 9.60555 32.5838 6.35107L6.39664 32.4817Z" fill="url(#paint1_linear)"/>

</svg>
