<?xml version="1.0" encoding="UTF-8" standalone="no"?>
<svg
   xmlns:dc="http://purl.org/dc/elements/1.1/"
   xmlns:cc="http://creativecommons.org/ns#"
   xmlns:rdf="http://www.w3.org/1999/02/22-rdf-syntax-ns#"
   xmlns:svg="http://www.w3.org/2000/svg"
   xmlns="http://www.w3.org/2000/svg"
   xmlns:xlink="http://www.w3.org/1999/xlink"
   id="svg8"
   version="1.1"
   viewBox="0 0 15.01966 3.1749301"
   height="3.1749301mm"
   width="15.01966mm">
  <defs
     id="defs2">
    <path
       id="a"
       d="m 29.573,11.708 h -6.876 c -0.913,0 -1.743,-0.13 -2.487,-0.395 A 5.343,5.343 0 0 1 18.293,10.17 C 17.761,9.67 17.352,9.06 17.06,8.335 16.77,7.609 16.626,6.785 16.626,5.864 c 0,-0.87 0.153,-1.661 0.458,-2.376 a 5.46,5.46 0 0 1 1.28,-1.843 5.869,5.869 0 0 1 1.939,-1.2 6.769,6.769 0 0 1 2.421,-0.426 c 0.87,0 1.675,0.142 2.417,0.426 a 5.697,5.697 0 0 1 1.923,1.2 5.38,5.38 0 0 1 1.262,1.843 c 0.3,0.715 0.45,1.506 0.45,2.376 a 5.384,5.384 0 0 1 -0.635,2.585 4.53,4.53 0 0 1 -0.644,0.916 c -0.243,0.262 -0.49,0.486 -0.75,0.669 v 0.032 h 2.817 v 1.642 z M 22.73,1.838 c -0.548,0 -1.061,0.101 -1.538,0.306 -0.478,0.204 -0.89,0.482 -1.233,0.837 a 3.892,3.892 0 0 0 -0.813,1.27 c -0.199,0.494 -0.297,1.032 -0.297,1.61 0,0.61 0.093,1.167 0.28,1.666 0.19,0.5 0.45,0.925 0.79,1.28 0.337,0.354 0.74,0.63 1.215,0.828 0.472,0.2 0.993,0.298 1.563,0.298 0.56,0 1.077,-0.098 1.555,-0.298 0.477,-0.199 0.889,-0.474 1.232,-0.829 0.344,-0.354 0.611,-0.78 0.805,-1.279 0.194,-0.499 0.29,-1.055 0.29,-1.666 0,-0.581 -0.09,-1.116 -0.274,-1.61 a 3.624,3.624 0 0 0 -0.78,-1.27 3.683,3.683 0 0 0 -1.216,-0.837 3.977,3.977 0 0 0 -1.58,-0.306" />
    <path
       id="c"
       d="m 42.578,7.522 c 0,0.687 -0.117,1.306 -0.355,1.86 a 4.211,4.211 0 0 1 -0.965,1.41 c -0.41,0.387 -0.892,0.684 -1.448,0.894 C 39.25,11.896 38.435,12 37.78,12 37.126,12 36.308,11.896 35.752,11.686 A 4.31,4.31 0 0 1 34.295,10.792 3.986,3.986 0 0 1 33.33,9.382 C 33.098,8.828 32.983,8.209 32.983,7.522 V 0.308 h 2.03 V 7.44 c 0,0.333 0.043,0.663 0.128,0.99 0.084,0.327 0.229,0.62 0.425,0.878 0.2,0.257 0.461,0.467 0.788,0.627 0.328,0.161 0.944,0.243 1.427,0.243 0.482,0 1.099,-0.082 1.426,-0.243 0.327,-0.16 0.59,-0.37 0.788,-0.627 0.2,-0.256 0.341,-0.55 0.426,-0.878 0.084,-0.327 0.128,-0.657 0.128,-0.99 V 0.308 h 2.029 z" />
    <path
       id="e"
       d="m 56.769,11.665 h -2.332 l -1.067,-2.081 -2.55,-5 -2.55,5 -1.066,2.08 H 44.87 L 45.936,9.584 50.82,0 55.702,9.584 Z" />
    <path
       id="g"
       d="M 7.192,0 0,8.062 4.778,11.714 H 9.6 L 14.384,8.062 Z M 7.274,10.227 H 7.113 C 5.593,10.184 4.282,8.989 4.282,7.465 4.282,6.955 4.516,6.245 4.754,5.834 5.362,4.634 6.573,3.033 7.001,1.868 L 7.124,1.525 c 0.021,-0.063 0.111,-0.063 0.133,0 L 7.377,1.86 C 7.38,1.865 7.38,1.87 7.383,1.876 v 0.003 c 0.43,1.162 1.636,2.757 2.244,3.952 0.238,0.412 0.472,1.12 0.472,1.63 0.003,1.528 -1.309,2.723 -2.825,2.766" />
  </defs>
  <metadata
     id="metadata5">
    <rdf:RDF>
      <cc:Work
         rdf:about="">
        <dc:format>image/svg+xml</dc:format>
        <dc:type
           rdf:resource="http://purl.org/dc/dcmitype/StillImage" />
        <dc:title></dc:title>
      </cc:Work>
    </rdf:RDF>
  </metadata>
  <g
     transform="translate(-12.711896,-14.481731)"
     id="layer1">
    <g
       id="g1075">
      <use
         transform="matrix(0.264574,0,0,0.264574,12.711897,14.481731)"
         y="0"
         x="0"
         style="fill:#ffffff"
         height="100%"
         width="100%"
         xlink:href="#a"
         id="use851" />
      <path
         style="fill:#13cdc2;stroke-width:0.99997729"
         d="m 19.790736,17.144671 v -0.007 a 1.189973,1.189973 0 0 0 0.418991,-0.521989 h -0.607986 a 0.93797874,0.93797874 0 0 1 -0.47299,0.417991 1.056976,1.056976 0 0 1 -0.41099,0.078 c -0.150997,0 -0.287994,-0.026 -0.413991,-0.078 a 0.94797851,0.94797851 0 0 1 -0.465989,-0.417991 h -0.638986 l 0.027,0.073 a 1.3309698,1.3309698 0 0 0 0.833981,0.787982 c 0.196995,0.07 0.416989,0.104998 0.657984,0.104998 h 1.81896 v -0.43499 h -0.745984 z"
         id="path855" />
      <use
         transform="matrix(0.264574,0,0,0.264574,12.711897,14.481731)"
         y="0"
         x="0"
         style="fill:#ffffff"
         height="100%"
         width="100%"
         xlink:href="#c"
         id="use859" />
      <path
         style="fill:#13cdc2;stroke-width:0.99997729"
         d="m 23.427654,16.614682 a 0.9519784,0.9519784 0 0 1 -0.021,0.098 0.5859867,0.5859867 0 0 1 -0.320992,0.397991 c -0.087,0.043 -0.249995,0.065 -0.377992,0.065 -0.126997,0 -0.289993,-0.022 -0.376991,-0.065 a 0.5859867,0.5859867 0 0 1 -0.320993,-0.397991 0.9519784,0.9519784 0 0 1 -0.02,-0.098 h -0.543988 c 0.012,0.125998 0.04,0.241995 0.085,0.349993 a 1.0739756,1.0739756 0 0 0 0.639985,0.608986 c 0.148997,0.056 0.363992,0.083 0.536988,0.083 0.173996,0 0.389991,-0.027 0.536988,-0.083 a 1.0939752,1.0939752 0 0 0 0.638986,-0.609986 c 0.045,-0.106998 0.074,-0.222995 0.087,-0.348993 z"
         id="path863" />
      <use
         transform="matrix(0.264574,0,0,0.264574,12.711897,14.481731)"
         y="0"
         x="0"
         style="fill:#ffffff"
         height="100%"
         width="100%"
         xlink:href="#e"
         id="use867" />
      <path
         style="fill:#13cdc2;stroke-width:0.99997729"
         d="m 25.071617,16.614682 -0.205996,0.402992 -0.281993,0.549987 h 0.617986 l 0.281993,-0.549987 0.204996,-0.402992 z m 2.17295,0 h -0.616986 l 0.204996,0.402992 0.281993,0.549987 h 0.616986 l -0.281993,-0.549987 z"
         id="path871" />
      <use
         transform="matrix(0.264574,0,0,0.264574,12.711897,14.481731)"
         y="0"
         x="0"
         style="fill:#ffffff"
         height="100%"
         width="100%"
         xlink:href="#g"
         id="use875" />
      <path
         style="fill:#13cdc2;stroke-width:0.99997729"
         d="m 14.636853,17.18767 h -0.043 A 0.76998253,0.76998253 0 0 1 13.86387,16.614682 h -1.151974 l 1.264971,0.965979 h 1.274971 l 1.265971,-0.965979 h -1.149974 a 0.76998253,0.76998253 0 0 1 -0.730983,0.572988 z"
         id="path879" />
    </g>
  </g>
</svg>
