<svg xmlns="http://www.w3.org/2000/svg" xmlns:xlink="http://www.w3.org/1999/xlink" viewBox="0 0 18.728 6.878" height="25.995" width="70.782">
  <defs>
    <filter id="b" width="2.081" height="2.198" x="-.541" y="-.428" filterUnits="objectBoundingBox">
      <feOffset dy="2" in="SourceAlpha" result="shadowOffsetOuter1"/>
      <feGaussianBlur in="shadowOffsetOuter1" result="shadowBlurOuter1" stdDeviation="2"/>
      <feColorMatrix in="shadowBlurOuter1" values="0 0 0 0 0.0509803922 0 0 0 0 0.0745098039 0 0 0 0 0.137254902 0 0 0 0.153053977 0"/>
    </filter>
    <filter id="d" width="2.459" height="2.197" x="-.73" y="-.428" filterUnits="objectBoundingBox">
      <feOffset dy="2" in="SourceAlpha" result="shadowOffsetOuter1"/>
      <feGaussianBlur in="shadowOffsetOuter1" result="shadowBlurOuter1" stdDeviation="2"/>
      <feColorMatrix in="shadowBlurOuter1" values="0 0 0 0 0.0509803922 0 0 0 0 0.0745098039 0 0 0 0 0.137254902 0 0 0 0.153053977 0"/>
    </filter>
    <filter id="f" width="2.177" height="2.2" x="-.588" y="-.429" filterUnits="objectBoundingBox">
      <feOffset dy="2" in="SourceAlpha" result="shadowOffsetOuter1"/>
      <feGaussianBlur in="shadowOffsetOuter1" result="shadowBlurOuter1" stdDeviation="2"/>
      <feColorMatrix in="shadowBlurOuter1" values="0 0 0 0 0.0509803922 0 0 0 0 0.0745098039 0 0 0 0 0.137254902 0 0 0 0.153053977 0"/>
    </filter>
    <filter id="h" width="1.973" height="2.195" x="-.487" y="-.427" filterUnits="objectBoundingBox">
      <feOffset dy="2" in="SourceAlpha" result="shadowOffsetOuter1"/>
      <feGaussianBlur in="shadowOffsetOuter1" result="shadowBlurOuter1" stdDeviation="2"/>
      <feColorMatrix in="shadowBlurOuter1" values="0 0 0 0 0.0509803922 0 0 0 0 0.0745098039 0 0 0 0 0.137254902 0 0 0 0.153053977 0"/>
    </filter>
    <path id="a" d="M29.573 11.708h-6.876c-.913 0-1.743-.13-2.487-.395a5.343 5.343 0 01-1.917-1.143c-.532-.5-.941-1.11-1.233-1.835-.29-.726-.434-1.55-.434-2.471 0-.87.153-1.661.458-2.376a5.46 5.46 0 011.28-1.843 5.869 5.869 0 011.939-1.2 6.769 6.769 0 012.421-.426c.87 0 1.675.142 2.417.426a5.697 5.697 0 011.923 1.2 5.38 5.38 0 011.262 1.843c.3.715.45 1.506.45 2.376a5.384 5.384 0 01-.635 2.585 4.53 4.53 0 01-.644.916c-.243.262-.49.486-.75.669v.032h2.817v1.642zm-6.843-9.87c-.548 0-1.061.101-1.538.306-.478.204-.89.482-1.233.837a3.892 3.892 0 00-.813 1.27c-.199.494-.297 1.032-.297 1.61 0 .61.093 1.167.28 1.666.19.5.45.925.79 1.28.337.354.74.63 1.215.828.472.2.993.298 1.563.298.56 0 1.077-.098 1.555-.298.477-.199.889-.474 1.232-.829.344-.354.611-.78.805-1.279.194-.499.29-1.055.29-1.666 0-.581-.09-1.116-.274-1.61a3.624 3.624 0 00-.78-1.27 3.683 3.683 0 00-1.216-.837 3.977 3.977 0 00-1.58-.306"/>
    <path id="c" d="M42.578 7.522c0 .687-.117 1.306-.355 1.86a4.211 4.211 0 01-.965 1.41c-.41.387-.892.684-1.448.894-.56.21-1.375.314-2.03.314-.654 0-1.472-.104-2.028-.314a4.31 4.31 0 01-1.457-.894 3.986 3.986 0 01-.965-1.41c-.232-.554-.347-1.173-.347-1.86V.308h2.03V7.44c0 .333.043.663.128.99.084.327.229.62.425.878.2.257.461.467.788.627.328.161.944.243 1.427.243.482 0 1.099-.082 1.426-.243.327-.16.59-.37.788-.627.2-.256.341-.55.426-.878.084-.327.128-.657.128-.99V.308h2.029z"/>
    <path id="e" d="M56.769 11.665h-2.332L53.37 9.584l-2.55-5-2.55 5-1.066 2.08H44.87l1.066-2.08L50.82 0l4.882 9.584z"/>
    <path id="g" d="M7.192 0L0 8.062l4.778 3.652H9.6l4.784-3.652zm.082 10.227h-.161c-1.52-.043-2.831-1.238-2.831-2.762 0-.51.234-1.22.472-1.631.608-1.2 1.819-2.801 2.247-3.966l.123-.343c.021-.063.111-.063.133 0l.12.335c.003.005.003.01.006.016v.003c.43 1.162 1.636 2.757 2.244 3.952.238.412.472 1.12.472 1.63.003 1.528-1.309 2.723-2.825 2.766"/>
  </defs>
  <g fill="none">
    <g transform="matrix(.26458 0 0 .26458 1.853 1.324)">
      <use height="100%" width="100%" xlink:href="#a" fill="#000" filter="url(#b)"/>
      <use height="100%" width="100%" xlink:href="#a" fill="#fff"/>
    </g>
    <path d="M8.932 3.987V3.98a1.19 1.19 0 00.419-.522h-.608a.938.938 0 01-.473.418 1.057 1.057 0 01-.411.078c-.151 0-.288-.026-.414-.078a.948.948 0 01-.466-.418H6.34l.027.073a1.331 1.331 0 00.834.788c.197.07.417.105.658.105h1.819v-.435h-.746z" fill="#13cdc2"/>
    <g transform="matrix(.26458 0 0 .26458 1.853 1.324)">
      <use height="100%" width="100%" xlink:href="#c" fill="#000" filter="url(#d)"/>
      <use height="100%" width="100%" xlink:href="#c" fill="#fff"/>
    </g>
    <path d="M12.569 3.457a.952.952 0 01-.021.098.586.586 0 01-.321.398c-.087.043-.25.065-.378.065-.127 0-.29-.022-.377-.065a.586.586 0 01-.321-.398.952.952 0 01-.02-.098h-.544c.012.126.04.242.085.35a1.074 1.074 0 00.64.609c.149.056.364.083.537.083.174 0 .39-.027.537-.083a1.094 1.094 0 00.639-.61c.045-.107.074-.223.087-.349z" fill="#13cdc2"/>
    <g transform="matrix(.26458 0 0 .26458 1.853 1.324)">
      <use height="100%" width="100%" xlink:href="#e" fill="#000" filter="url(#f)"/>
      <use height="100%" width="100%" xlink:href="#e" fill="#fff"/>
    </g>
    <path d="M14.213 3.457l-.206.403-.282.55h.618l.282-.55.205-.403zm2.173 0h-.617l.205.403.282.55h.617l-.282-.55z" fill="#13cdc2"/>
    <g transform="matrix(.26458 0 0 .26458 1.853 1.324)">
      <use height="100%" width="100%" xlink:href="#g" fill="#000" filter="url(#h)"/>
      <use height="100%" width="100%" xlink:href="#g" fill="#fff"/>
    </g>
    <path d="M3.778 4.03h-.043a.77.77 0 01-.73-.573H1.853l1.265.966h1.275l1.266-.966h-1.15a.77.77 0 01-.731.573z" fill="#13cdc2"/>
  </g>
</svg>
