<svg xmlns="http://www.w3.org/2000/svg" viewBox="0 0 47.582 55.352" height="209.206" width="179.838">
  <g fill="none" fill-rule="evenodd">
    <path d="M36.13 0L1.828 8.087l11.143 47.265 34.3-8.086z" fill="#fff"/>
    <path d="M4.88 11.185l-4.231.998a.527.527 0 11-.242-1.026l4.232-.998a.527.527 0 11.241 1.027m.414 1.755l-4.231.998a.527.527 0 01-.243-1.027l4.232-.997a.527.527 0 11.242 1.026m.747 3.169l-4.231.997a.527.527 0 11-.243-1.026l4.232-.998a.528.528 0 01.242 1.027m.414 1.755l-4.232.998a.527.527 0 11-.242-1.027l4.232-.997a.527.527 0 01.242 1.026m.747 3.169l-4.231.997a.527.527 0 11-.243-1.026l4.232-.998a.527.527 0 11.242 1.027m.414 1.756l-4.232.997a.527.527 0 11-.242-1.026l4.232-.998a.527.527 0 11.242 1.027m.747 3.168l-4.232.998a.527.527 0 11-.242-1.027l4.232-.997a.527.527 0 11.242 1.026m.414 1.756l-4.232.997a.527.527 0 11-.242-1.026l4.232-.998a.527.527 0 11.242 1.027m.747 3.168l-4.232.998a.527.527 0 11-.242-1.027l4.232-.997a.527.527 0 11.242 1.026m.414 1.756l-4.232.998a.527.527 0 11-.242-1.027l4.232-.998a.527.527 0 11.242 1.027m.747 3.168l-4.232.998a.527.527 0 11-.242-1.027l4.232-.997a.527.527 0 11.242 1.026m.414 1.756l-4.232.998a.527.527 0 11-.242-1.027l4.232-.997a.527.527 0 11.242 1.026m.747 3.169l-4.232.997a.528.528 0 01-.242-1.026l4.232-.998a.528.528 0 01.242 1.027m.414 1.755l-4.232.998a.528.528 0 01-.242-1.026l4.232-.998a.528.528 0 01.242 1.026m.747 3.169l-4.232.998a.527.527 0 11-.242-1.027l4.232-.998a.528.528 0 01.242 1.027m.414 1.756l-4.232.997a.528.528 0 01-.242-1.026l4.232-.998a.527.527 0 01.242 1.027m.747 3.168l-4.232.998a.527.527 0 01-.242-1.027l4.232-.998a.527.527 0 11.242 1.027m.414 1.756l-4.232.997a.527.527 0 11-.242-1.026l4.232-.998a.527.527 0 11.242 1.027" fill="#007676"/>
    <path d="M9.455 11.503a.167.167 0 11.326-.077.167.167 0 01-.326.077m1.004-.237a.167.167 0 11.325-.077.167.167 0 01-.325.077m1.004-.236a.167.167 0 11.325-.077.167.167 0 01-.325.077m1.003-.237a.167.167 0 11.325-.077.167.167 0 01-.325.077m1.004-.237a.167.167 0 11.325-.077.167.167 0 01-.325.077m1.004-.236a.167.167 0 11.325-.077.167.167 0 01-.325.077m1.004-.237a.167.167 0 11.325-.077.167.167 0 01-.325.077m1.003-.237a.167.167 0 11.326-.077.167.167 0 01-.326.077m1.004-.236a.167.167 0 11.325-.077.167.167 0 01-.325.077m1.004-.237a.167.167 0 11.325-.077.167.167 0 01-.325.077m1.004-.237a.167.167 0 11.325-.076.167.167 0 01-.325.076m1.003-.236a.167.167 0 11.326-.077.167.167 0 01-.326.077m1.004-.237a.167.167 0 11.326-.076.167.167 0 01-.326.076m1.004-.237a.167.167 0 11.325-.077.167.167 0 01-.325.077m1.003-.236a.167.167 0 11.326-.077.167.167 0 01-.325.077m1.003-.237a.167.167 0 11.326-.076.167.167 0 01-.326.076m1.004-.236a.167.167 0 11.325-.077.167.167 0 01-.325.077m1.004-.237a.167.167 0 11.325-.077.167.167 0 01-.325.077m1.004-.237a.167.167 0 11.325-.077.167.167 0 01-.325.077m1.004-.236a.167.167 0 11.325-.077.167.167 0 01-.326.077m1.004-.237a.167.167 0 11.325-.077.167.167 0 01-.325.077m1.004-.237a.167.167 0 11.325-.076.167.167 0 01-.325.076m1.003-.236a.167.167 0 11.326-.077.167.167 0 01-.326.077m1.004-.237a.167.167 0 11.325-.077.167.167 0 01-.325.077M10.183 14.591a.167.167 0 11.325-.077.167.167 0 01-.325.077m1.004-.236a.167.167 0 11.325-.077.167.167 0 01-.325.077m1.004-.237a.167.167 0 11.325-.077.167.167 0 01-.325.077m1.004-.237a.167.167 0 11.325-.076.167.167 0 01-.325.076m1.003-.236a.167.167 0 11.326-.077.167.167 0 01-.326.077m1.004-.237a.167.167 0 11.325-.077.167.167 0 01-.325.077m1.004-.237a.167.167 0 11.325-.077.167.167 0 01-.325.077m1.004-.236a.167.167 0 11.325-.077.167.167 0 01-.325.077m1.003-.237a.167.167 0 11.325-.077.167.167 0 01-.325.077m1.004-.237a.167.167 0 11.325-.076.167.167 0 01-.325.076m1.004-.236a.167.167 0 11.325-.077.167.167 0 01-.325.077m1.004-.237a.167.167 0 11.325-.077.167.167 0 01-.325.077m1.003-.236a.167.167 0 11.325-.077.167.167 0 01-.325.077m1.004-.237a.167.167 0 11.325-.077.167.167 0 01-.325.077m1.004-.237a.167.167 0 11.325-.077.167.167 0 01-.325.077m1.003-.236a.167.167 0 11.326-.077.167.167 0 01-.326.077m1.004-.237a.167.167 0 11.325-.077.167.167 0 01-.325.077m1.004-.237a.167.167 0 11.325-.077.167.167 0 01-.325.077m1.004-.236a.167.167 0 11.325-.077.167.167 0 01-.325.077m1.003-.237a.167.167 0 11.326-.077.167.167 0 01-.326.077m1.004-.237a.167.167 0 11.325-.076.167.167 0 01-.325.076m1.004-.236a.167.167 0 11.325-.077.167.167 0 01-.325.077m1.004-.237a.167.167 0 11.325-.077.167.167 0 01-.325.077m1.004-.237a.167.167 0 11.325-.077.167.167 0 01-.325.077M10.911 17.68a.167.167 0 11.326-.077.167.167 0 01-.326.077m1.004-.237a.167.167 0 11.325-.077.167.167 0 01-.325.077m1.004-.237a.167.167 0 11.325-.076.167.167 0 01-.325.076m1.004-.236a.167.167 0 11.325-.077.167.167 0 01-.325.077m1.003-.237a.167.167 0 11.326-.077.167.167 0 01-.326.077m1.004-.236a.167.167 0 11.325-.077.167.167 0 01-.325.077m1.004-.237a.167.167 0 11.325-.077.167.167 0 01-.325.077m1.004-.237a.167.167 0 11.325-.077.167.167 0 01-.325.077m1.003-.237a.167.167 0 11.325-.076.167.167 0 01-.325.076m1.004-.236a.167.167 0 11.326-.077.167.167 0 01-.326.077m1.004-.237a.167.167 0 11.325-.077.167.167 0 01-.325.077m1.004-.236a.167.167 0 11.325-.077.167.167 0 01-.325.077m1.003-.237a.167.167 0 11.326-.077.167.167 0 01-.326.077m1.004-.237a.167.167 0 11.325-.077.167.167 0 01-.325.077m1.004-.236a.167.167 0 11.325-.077.167.167 0 01-.325.077m1.004-.237a.167.167 0 11.325-.077.167.167 0 01-.325.077m1.003-.237a.167.167 0 11.325-.077.167.167 0 01-.325.077m1.004-.236a.167.167 0 11.325-.077.167.167 0 01-.325.077m1.004-.237a.167.167 0 11.325-.077.167.167 0 01-.325.077m1.003-.237a.167.167 0 11.326-.076.167.167 0 01-.326.076m1.004-.236a.167.167 0 11.326-.077.167.167 0 01-.326.077m1.004-.237a.167.167 0 11.325-.077.167.167 0 01-.325.077m1.004-.237a.167.167 0 11.325-.077.167.167 0 01-.325.077m1.004-.236a.167.167 0 11.325-.077.167.167 0 01-.325.077M11.64 20.768a.167.167 0 11.325-.077.167.167 0 01-.325.077m1.003-.237a.167.167 0 11.326-.076.167.167 0 01-.326.076m1.004-.236a.167.167 0 11.326-.077.167.167 0 01-.326.077m1.004-.237a.167.167 0 11.325-.077.167.167 0 01-.325.077m1.004-.237a.167.167 0 11.325-.077.167.167 0 01-.325.077m1.003-.236a.167.167 0 11.326-.077.167.167 0 01-.326.077m1.004-.237a.167.167 0 11.325-.077.167.167 0 01-.325.077m1.004-.237a.167.167 0 11.325-.076.167.167 0 01-.325.076m1.003-.236a.167.167 0 11.326-.077.167.167 0 01-.326.077m1.004-.237a.167.167 0 11.325-.077.167.167 0 01-.325.077m1.004-.236a.167.167 0 11.325-.077.167.167 0 01-.325.077m1.004-.237a.167.167 0 11.325-.077.167.167 0 01-.325.077m1.003-.237a.167.167 0 11.326-.077.167.167 0 01-.326.077m1.004-.236a.167.167 0 11.325-.077.167.167 0 01-.325.077m1.004-.237a.167.167 0 11.325-.077.167.167 0 01-.325.077m1.004-.237a.167.167 0 11.325-.077.167.167 0 01-.325.077m1.003-.236a.167.167 0 11.326-.077.167.167 0 01-.326.077m1.004-.237a.167.167 0 11.325-.077.167.167 0 01-.325.077m1.004-.237a.167.167 0 11.325-.076.167.167 0 01-.325.076m1.004-.236a.167.167 0 11.325-.077.167.167 0 01-.325.077m1.004-.237a.167.167 0 11.325-.077.167.167 0 01-.325.077m1.003-.237a.167.167 0 11.325-.077.167.167 0 01-.325.077m1.004-.236a.167.167 0 11.325-.077.167.167 0 01-.325.077m1.004-.237a.167.167 0 11.325-.077.167.167 0 01-.325.077M12.368 23.856a.167.167 0 11.325-.076.167.167 0 01-.325.076m1.003-.236a.167.167 0 11.326-.077.167.167 0 01-.326.077m1.004-.237a.167.167 0 11.325-.076.167.167 0 01-.325.076m1.004-.237a.167.167 0 11.325-.076.167.167 0 01-.325.076m1.004-.236a.167.167 0 11.325-.077.167.167 0 01-.325.077m1.003-.237a.167.167 0 11.326-.077.167.167 0 01-.326.077m1.004-.237a.167.167 0 11.326-.076.167.167 0 01-.326.076m1.004-.236a.167.167 0 11.325-.077.167.167 0 01-.325.077m1.004-.237a.167.167 0 11.325-.077.167.167 0 01-.325.077m1.003-.236a.167.167 0 11.326-.077.167.167 0 01-.326.077m1.004-.237a.167.167 0 11.325-.077.167.167 0 01-.325.077m1.004-.237a.167.167 0 11.325-.077.167.167 0 01-.325.077m1.003-.236a.167.167 0 11.326-.077.167.167 0 01-.326.077m1.004-.237a.167.167 0 11.325-.077.167.167 0 01-.325.077m1.004-.237a.167.167 0 11.325-.077.167.167 0 01-.325.077m1.004-.236a.167.167 0 11.325-.077.167.167 0 01-.325.077m1.003-.237a.167.167 0 11.326-.077.167.167 0 01-.326.077m1.004-.237a.167.167 0 11.326-.076.167.167 0 01-.326.076m1.004-.236a.167.167 0 11.325-.077.167.167 0 01-.325.077m1.004-.237a.167.167 0 11.325-.076.167.167 0 01-.325.076m1.004-.236a.167.167 0 11.325-.077.167.167 0 01-.325.077m1.003-.237a.167.167 0 11.325-.077.167.167 0 01-.325.077m1.004-.237a.167.167 0 11.325-.077.167.167 0 01-.325.077m1.004-.237a.167.167 0 11.325-.076.167.167 0 01-.325.076M13.096 26.945a.167.167 0 11.325-.077.167.167 0 01-.325.077m1.004-.237a.167.167 0 11.325-.077.167.167 0 01-.325.077m1.003-.236a.167.167 0 11.326-.077.167.167 0 01-.326.077m1.004-.237a.167.167 0 11.325-.077.167.167 0 01-.325.077m1.004-.237a.167.167 0 11.325-.077.167.167 0 01-.325.077m1.004-.237a.167.167 0 11.325-.076.167.167 0 01-.325.076m1.003-.236a.167.167 0 11.325-.077.167.167 0 01-.325.077m1.004-.237a.168.168 0 01.325-.076.167.167 0 11-.325.076m1.004-.236a.167.167 0 11.325-.077.167.167 0 01-.325.077m1.003-.237a.167.167 0 11.326-.077.167.167 0 01-.326.077m1.004-.237a.167.167 0 11.325-.077.167.167 0 01-.325.077m1.004-.236a.167.167 0 11.325-.077.167.167 0 01-.325.077m1.004-.237a.167.167 0 11.325-.077.167.167 0 01-.325.077m1.003-.236a.167.167 0 11.202.124.167.167 0 01-.202-.125m1.004-.236a.167.167 0 11.325-.077.167.167 0 01-.325.077m1.004-.237a.167.167 0 11.326-.077.167.167 0 01-.326.077m1.004-.237a.167.167 0 11.325-.076.167.167 0 01-.325.076m1.004-.236a.167.167 0 11.325-.077.167.167 0 01-.325.077m1.003-.237a.167.167 0 11.325-.077.167.167 0 01-.325.077m1.004-.236a.167.167 0 11.325-.077.167.167 0 01-.325.077m1.004-.237a.167.167 0 11.325-.077.167.167 0 01-.325.077m1.003-.237a.167.167 0 11.326-.076.167.167 0 01-.326.076m1.004-.236a.167.167 0 11.325-.077.167.167 0 01-.325.077m1.004-.237a.167.167 0 11.325-.077.167.167 0 01-.325.077M13.824 30.033a.167.167 0 11.325-.076.167.167 0 01-.325.076m1.004-.236a.167.167 0 11.325-.077.167.167 0 01-.325.077m1.003-.237a.167.167 0 11.326-.077.167.167 0 01-.326.077m1.004-.237a.167.167 0 11.325-.077.167.167 0 01-.325.077m1.004-.237a.167.167 0 11.325-.076.167.167 0 01-.325.076m1.004-.236a.167.167 0 11.325-.077.167.167 0 01-.325.077m1.003-.237a.167.167 0 11.326-.077.167.167 0 01-.326.077m1.004-.236a.167.167 0 11.325-.077.167.167 0 01-.325.077m1.004-.237a.167.167 0 11.325-.077.167.167 0 01-.325.077m1.004-.237a.167.167 0 11.325-.077.167.167 0 01-.325.077m1.003-.236a.167.167 0 11.325-.077.167.167 0 01-.325.077m1.004-.237a.167.167 0 11.325-.077.167.167 0 01-.325.077m1.004-.237a.167.167 0 11.325-.077.167.167 0 01-.325.077m1.004-.236a.167.167 0 11.325-.077.167.167 0 01-.325.077m1.003-.237a.167.167 0 11.326-.077.167.167 0 01-.326.077m1.004-.237a.167.167 0 11.326-.076.167.167 0 01-.326.076m1.004-.236a.167.167 0 11.325-.077.167.167 0 01-.325.077m1.004-.237a.167.167 0 11.325-.077.167.167 0 01-.325.077m1.003-.236a.167.167 0 11.326-.077.167.167 0 01-.326.077m1.004-.237a.167.167 0 11.325-.077.167.167 0 01-.325.077M33.9 25.3a.167.167 0 11.326-.077.167.167 0 01-.326.077m1.004-.237a.167.167 0 11.325-.076.167.167 0 01-.325.076m1.003-.236a.167.167 0 11.326-.077.167.167 0 01-.326.077m1.004-.237a.167.167 0 11.325-.077.167.167 0 01-.325.077M14.552 33.122a.167.167 0 11.325-.077.167.167 0 01-.325.077m1.004-.237a.167.167 0 11.325-.077.167.167 0 01-.325.077M17.563 32.412a.167.167 0 11.325-.077.167.167 0 01-.325.077m1.004-.237a.167.167 0 11.325-.077.167.167 0 01-.325.077m1.004-.237a.167.167 0 11.325-.077.167.167 0 01-.325.077m1.004-.236a.167.167 0 11.325-.077.167.167 0 01-.325.077m1.003-.237a.167.167 0 11.325-.077.167.167 0 01-.325.077m1.004-.237a.167.167 0 11.325-.076.167.167 0 01-.325.076m1.004-.236a.167.167 0 11.325-.077.167.167 0 01-.325.077m1.003-.237a.167.167 0 11.326-.077.167.167 0 01-.326.077m1.004-.237a.167.167 0 11.325-.077.167.167 0 01-.325.077m1.004-.236a.167.167 0 11.325-.077.167.167 0 01-.325.077m1.004-.237a.167.167 0 11.325-.077.167.167 0 01-.325.077m1.004-.237a.167.167 0 11.325-.076.167.167 0 01-.325.076m1.003-.236a.167.167 0 11.326-.077.167.167 0 01-.326.077m1.004-.237a.167.167 0 11.325-.076.167.167 0 01-.325.076m1.004-.236a.167.167 0 11.325-.077.167.167 0 01-.325.077m1.003-.237a.167.167 0 11.326-.077.167.167 0 01-.326.077m1.004-.237a.167.167 0 11.325-.077.167.167 0 01-.325.077m1.004-.236a.167.167 0 11.325-.077.167.167 0 01-.325.077m1.004-.237a.167.167 0 11.325-.077.167.167 0 01-.325.077m1.003-.237a.167.167 0 11.326-.077.167.167 0 01-.326.077m1.004-.236a.167.167 0 11.325-.077.167.167 0 01-.325.077M15.28 36.21a.167.167 0 11.325-.077.167.167 0 01-.325.077m1.004-.237a.167.167 0 11.325-.077.167.167 0 01-.325.077m1.004-.236a.167.167 0 11.325-.077.167.167 0 01-.325.077m1.003-.237a.167.167 0 11.326-.077.167.167 0 01-.326.077m1.004-.237a.167.167 0 11.325-.077.167.167 0 01-.325.077m1.004-.236a.167.167 0 11.325-.077.167.167 0 01-.325.077m1.004-.237a.167.167 0 11.325-.077.167.167 0 01-.325.077m1.003-.236a.167.167 0 11.326-.077.167.167 0 01-.326.077m1.004-.237a.167.167 0 11.325-.077.167.167 0 01-.325.077m1.004-.237a.167.167 0 11.325-.077.167.167 0 01-.325.077m1.004-.237a.167.167 0 11.325-.076.167.167 0 01-.325.076m1.004-.236a.167.167 0 11.325-.077.167.167 0 01-.325.077m1.003-.237a.167.167 0 11.325-.077.167.167 0 01-.325.077m1.004-.236a.167.167 0 11.325-.077.167.167 0 01-.325.077m1.003-.237a.167.167 0 11.326-.077.167.167 0 01-.326.077m1.004-.237a.167.167 0 11.325-.077.167.167 0 01-.325.077m1.004-.236a.167.167 0 11.325-.077.167.167 0 01-.325.077m1.004-.237a.167.167 0 11.325-.077.167.167 0 01-.325.077m1.004-.237a.167.167 0 11.325-.077.167.167 0 01-.325.077m1.003-.236a.167.167 0 11.326-.077.167.167 0 01-.326.077m1.004-.237a.167.167 0 11.325-.077.167.167 0 01-.325.077m1.004-.237a.167.167 0 11.325-.076.167.167 0 01-.325.076m1.004-.236a.167.167 0 11.325-.077.167.167 0 01-.325.077m1.003-.237a.167.167 0 11.326-.077.167.167 0 01-.326.077M16.008 39.298a.167.167 0 11.326-.077.167.167 0 01-.326.077m1.004-.236a.167.167 0 11.325-.077.167.167 0 01-.325.077m1.004-.237a.167.167 0 11.325-.077.167.167 0 01-.325.077m1.003-.237a.167.167 0 11.326-.076.167.167 0 01-.326.076m1.004-.236a.167.167 0 11.325-.077.167.167 0 01-.325.077m1.004-.237a.167.167 0 11.325-.077.167.167 0 01-.325.077m1.004-.237a.167.167 0 11.325-.076.167.167 0 01-.325.076m1.003-.236a.167.167 0 110 0m1.004-.237a.167.167 0 11.325-.077.167.167 0 01-.325.077m1.004-.237a.167.167 0 11.325-.076.167.167 0 01-.325.076m1.004-.236a.167.167 0 11.325-.077.167.167 0 01-.325.077m1.004-.237a.167.167 0 11.325-.077.167.167 0 01-.325.077m1.003-.236a.167.167 0 11.326-.077.167.167 0 01-.326.077m1.004-.237a.167.167 0 11.325-.077.167.167 0 01-.325.077m1.003-.237a.167.167 0 11.326-.076.167.167 0 01-.325.076m1.004-.236a.167.167 0 11.325-.077.167.167 0 01-.325.077m1.003-.237a.167.167 0 11.325-.077.167.167 0 01-.325.077m1.004-.237a.167.167 0 11.325-.077.167.167 0 01-.325.077m1.004-.236a.167.167 0 11.325-.077.167.167 0 01-.325.077m1.004-.237a.167.167 0 11.325-.077.167.167 0 01-.325.077m1.003-.237a.167.167 0 11.325-.077.167.167 0 01-.325.077m1.004-.236a.167.167 0 11.325-.077.167.167 0 01-.325.077m1.004-.237a.167.167 0 11.325-.076.167.167 0 01-.325.076m1.003-.237a.167.167 0 11.326-.077.167.167 0 01-.326.077M16.736 42.387a.167.167 0 11.326-.077.167.167 0 01-.326.077m1.004-.237a.167.167 0 11.201.124.167.167 0 01-.2-.124m1.003-.237a.167.167 0 11.325-.076.167.167 0 01-.325.076m1.004-.236a.167.167 0 11.325-.077.167.167 0 01-.325.077m1.003-.237a.167.167 0 11.326-.077.167.167 0 01-.326.077m1.004-.237a.167.167 0 11.325-.077.167.167 0 01-.325.077m1.004-.236a.167.167 0 11.325-.077.167.167 0 01-.325.077m1.004-.237a.167.167 0 11.325-.077.167.167 0 01-.325.077m1.003-.237a.167.167 0 11.326-.076.167.167 0 01-.326.076m1.004-.236a.167.167 0 11.325-.077.167.167 0 01-.325.077m1.004-.237a.167.167 0 11.325-.077.167.167 0 01-.325.077m1.004-.236a.167.167 0 11.325-.077.167.167 0 01-.325.077m1.003-.237a.167.167 0 11.325-.077.167.167 0 01-.325.077m1.004-.237a.167.167 0 11.325-.077.167.167 0 01-.325.077m1.004-.237a.167.167 0 11.325-.076.167.167 0 01-.325.076m1.004-.236a.167.167 0 11.325-.077.167.167 0 01-.325.077m1.003-.237a.167.167 0 11.326-.077.167.167 0 01-.326.077m1.004-.236a.167.167 0 11.325-.077.167.167 0 01-.325.077m1.004-.237a.167.167 0 11.325-.077.167.167 0 01-.325.077m1.003-.237a.167.167 0 11.325-.076.167.167 0 01-.324.076m1.003-.236a.167.167 0 11.326-.077.167.167 0 01-.326.077m1.004-.237a.167.167 0 11.325-.077.167.167 0 01-.325.077m1.004-.237a.167.167 0 11.325-.077.167.167 0 01-.325.077m1.004-.236a.167.167 0 11.325-.077.167.167 0 01-.325.077M17.464 45.475a.167.167 0 11.326-.077.167.167 0 01-.326.077m1.004-.237a.167.167 0 11.325-.077.167.167 0 01-.325.077m1.004-.236a.167.167 0 11.325-.077.167.167 0 01-.325.077m1.004-.237a.167.167 0 11.325-.076.167.167 0 01-.325.076m1.003-.236a.167.167 0 11.326-.077.167.167 0 01-.326.077m1.004-.237a.167.167 0 11.326-.077.167.167 0 01-.326.077m1.004-.237a.167.167 0 11.326-.076.167.167 0 01-.326.076m1.004-.237a.167.167 0 11.325-.076.167.167 0 01-.325.076m1.003-.236a.167.167 0 11.325-.077.167.167 0 01-.324.077m1.003-.237a.167.167 0 11.326-.076.167.167 0 01-.326.076m2.008-.473a.167.167 0 11.325-.077.167.167 0 01-.325.077m1.004-.237a.167.167 0 11.325-.077.167.167 0 01-.325.077m1.003-.236a.167.167 0 11.326-.077.167.167 0 01-.326.077m1.004-.237a.167.167 0 11.325-.077.167.167 0 01-.325.077m1.004-.237a.167.167 0 11.325-.076.167.167 0 01-.325.076m1.003-.236a.167.167 0 11.326-.077.167.167 0 01-.326.077m1.004-.237a.167.167 0 11.325-.077.167.167 0 01-.325.077m1.004-.237a.167.167 0 11.325-.077.167.167 0 01-.325.077m1.004-.236a.167.167 0 11.325-.077.167.167 0 01-.325.077m1.003-.237a.167.167 0 11.326-.077.167.167 0 01-.326.077m1.004-.236a.167.167 0 11.325-.077.167.167 0 01-.325.077m1.004-.237a.167.167 0 11.325-.077.167.167 0 01-.325.077m1.004-.237a.167.167 0 11.325-.077.167.167 0 01-.325.077M18.193 48.563a.167.167 0 11.325-.076.167.167 0 01-.325.076m1.003-.236a.167.167 0 11.326-.077.167.167 0 01-.326.077m1.004-.237a.167.167 0 11.326-.076.167.167 0 01-.326.076m1.004-.237a.167.167 0 11.325-.077.167.167 0 01-.325.077m1.004-.236a.167.167 0 11.325-.077.167.167 0 01-.325.077m1.004-.237a.167.167 0 11.325-.077.167.167 0 01-.325.077m1.003-.237a.167.167 0 11.325-.076.167.167 0 01-.325.076m1.004-.236a.167.167 0 11.325-.077.167.167 0 01-.325.077m1.004-.237a.167.167 0 11.325-.077.167.167 0 01-.325.077m1.003-.236a.167.167 0 11.325-.077.167.167 0 01-.325.077m1.004-.237a.167.167 0 11.325-.077.167.167 0 01-.325.077m1.004-.237a.167.167 0 11.325-.077.167.167 0 01-.325.077m1.004-.236a.167.167 0 11.325-.077.167.167 0 01-.325.077m1.003-.237a.167.167 0 11.326-.077.167.167 0 01-.326.077m1.004-.237a.167.167 0 11.325-.077.167.167 0 01-.325.077m1.004-.236a.167.167 0 11.325-.077.167.167 0 01-.325.077m1.004-.237a.167.167 0 11.325-.077.167.167 0 01-.325.077m1.003-.237a.167.167 0 11.326-.076.167.167 0 01-.326.076m1.004-.236a.167.167 0 11.325-.077.167.167 0 01-.325.077m1.004-.237a.167.167 0 11.325-.077.167.167 0 01-.325.077m1.004-.237a.167.167 0 11.325-.077.167.167 0 01-.325.077m1.003-.236a.167.167 0 11.325-.077.167.167 0 01-.325.077m1.004-.237a.167.167 0 11.325-.077.167.167 0 01-.325.077m1.004-.237a.167.167 0 11.325-.076.167.167 0 01-.325.076" fill="#05999b"/>
    <path d="M28.594 15.44l-16.86 4.04a.393.393 0 01-.18-.765l16.86-4.04a.393.393 0 11.18.765m-2.412-2.713l-15.18 3.633a.394.394 0 01-.18-.765l15.18-3.633a.393.393 0 01.18.765m5.572 8.531L13.21 25.72a.393.393 0 01-.18-.765l18.543-4.461a.393.393 0 01.18.765m-4.615-2.185L12.47 22.61a.393.393 0 11-.18-.766l14.667-3.537a.393.393 0 01.18.766m1.595 9.462l-14.085 3.39a.393.393 0 01-.18-.765l14.085-3.39a.393.393 0 11.18.764m1.002-3.531l-15.806 3.803a.393.393 0 01-.18-.765l15.806-3.803a.393.393 0 01.18.765m2.962 5.773l-17.335 4.177a.393.393 0 01-.18-.766l17.335-4.177a.393.393 0 11.18.765M22.9 10.324l-12.603 3.053a.393.393 0 01-.18-.765L22.72 9.558a.393.393 0 01.18.766" fill="#92eae2"/>
    <path d="M30.451 30.872l1.706-.814-1.35-1.042z" fill="#4f5760"/>
    <path d="M31.28 26.54l-.474 2.476 1.35 1.042 2.275-1.087 13.151-17.049-3.151-2.43z" fill="#d8d8d8"/>
    <path d="M31.28 26.54l3.15 2.431 13.152-17.049-3.151-2.43z" fill="#343b44"/>
    <path d="M45.803 10.55l.407.314-13.152 17.048-.406-.313zm-.825-.637l.406.313-13.151 17.05-.407-.314zm1.704 1.315l.406.313-13.151 17.05-.407-.314z" fill="#4f5760"/>
  </g>
</svg>
