<svg xmlns="http://www.w3.org/2000/svg" viewBox="0 0 22 22">
  <path fill="#FFF" fill-rule="nonzero" d="M2.9275929 22h9.2248691c1.6147932 0 2.9286287-1.3138356 2.9286287-2.9286287v-3.9902826h3.9902826c1.6147931 0 2.9286287-1.3138355 2.9286287-2.9275909V2.9286287C22.000002 1.3127978 20.6861664 0 19.0713733 0H9.8465042C8.231711 0 6.9178755 1.3138356 6.9178755 2.9286287v3.9902826H2.9286307c-1.6147931 0-2.9286287 1.3138355-2.9286287 2.9275909v9.2238313C-.0010358 20.6861645 1.3127998 22 2.9275929 22ZM8.1632172 2.9286287c0-.9288174.7555074-1.6843247 1.683287-1.6843247h9.224869c.9288175 0 1.683287.7565451 1.683287 1.6843247v9.2248691c0 .9288174-.7555073 1.683287-1.683287 1.683287h-3.9892447V9.8465021c0-1.6147932-1.3138355-2.9275909-2.9286287-2.9275909H8.1632172V2.9286287ZM1.244306 9.8465022c0-.9288174.7555073-1.683287 1.6832869-1.683287h9.2248691c.9288174 0 1.683287.7555074 1.683287 1.683287v9.2238313c0 .9288174-.7555074 1.6843247-1.683287 1.6843247H2.927593c-.9288174 0-1.6832869-.756545-1.6832869-1.6843247V9.8465022Z"/>
</svg>
