<?xml version="1.0" encoding="UTF-8" standalone="no"?>
<svg
   xmlns:dc="http://purl.org/dc/elements/1.1/"
   xmlns:cc="http://creativecommons.org/ns#"
   xmlns:rdf="http://www.w3.org/1999/02/22-rdf-syntax-ns#"
   xmlns:svg="http://www.w3.org/2000/svg"
   xmlns="http://www.w3.org/2000/svg"
   width="4.3348637mm"
   height="3.3161254mm"
   viewBox="0 0 4.3348637 3.3161254"
   version="1.1"
   id="svg8">
  <defs
     id="defs2" />
  <metadata
     id="metadata5">
    <rdf:RDF>
      <cc:Work
         rdf:about="">
        <dc:format>image/svg+xml</dc:format>
        <dc:type
           rdf:resource="http://purl.org/dc/dcmitype/StillImage" />
        <dc:title></dc:title>
      </cc:Work>
    </rdf:RDF>
  </metadata>
  <g
     style="fill:#05989a;fill-opacity:1"
     id="layer1"
     transform="translate(-5.297598,-4.016788)">
    <g
       style="fill:#05989a;fill-opacity:1"
       id="g827"
       transform="matrix(0.26458333,0,0,0.26458333,5.297584,4.0167881)">
      <path
         id="Fill-1"
         transform="rotate(90.000003,3.325348,3.4920349)"
         d="M 12.0947,0.272 C 11.916,0.0946667 11.6893,0 11.4387,0 H 0.928 C 0.673333,0 0.453333,0.092 0.272,0.272 0.0946667,0.450667 0,0.677333 0,0.928 0,1.18 0.0946667,1.40667 0.272,1.584 c 0.18,0.18 0.4,0.27067 0.656,0.272 H 9.19867 L 5.82133,5.23333 c -0.18,0.17867 -0.272,0.4 -0.272,0.656 0,0.256 0.092,0.476 0.272,0.65734 0.18,0.17866 0.40134,0.27066 0.656,0.27066 0.252,0 0.47867,-0.09466 0.656,-0.27066 L 12.0947,1.584 c 0.1786,-0.17733 0.272,-0.404 0.272,-0.656 0,-0.250667 -0.0934,-0.477333 -0.272,-0.656"
         style="fill:#05989a;fill-opacity:1;fill-rule:evenodd;stroke:none" />
      <path
         id="Fill-4"
         transform="rotate(90.000003,8.191895,8.1918946)"
         d="m 0.928,6.81683 h 10.524 c 0.252,-0.00133 0.472,-0.092 0.6547,-0.272 0.18,-0.18 0.2706,-0.4 0.2706,-0.656 0,-0.25466 -0.0906,-0.476 -0.272,-0.65733 C 11.924,5.0515 11.704,4.96083 11.4507,4.96083 H 3.16667 L 6.544,1.5835 c 0.18,-0.18 0.272,-0.4 0.27333,-0.656 C 6.816,0.6715 6.724,0.4515 6.544,0.2715 6.18533,-0.0898331 5.59467,-0.0911664 5.232,0.2715 L 0.270667,5.23283 C 0.0906667,5.41417 0,5.63417 0,5.88883 c 0,0.25467 0.092,0.476 0.270667,0.656 0.18,0.18 0.401333,0.27067 0.657333,0.272"
         style="fill:#05989a;fill-opacity:1;fill-rule:evenodd;stroke:none" />
    </g>
  </g>
</svg>
