<svg xmlns="http://www.w3.org/2000/svg" viewBox="0 0 30 30">
  <g fill="#8E9AB5" fill-rule="evenodd">
    <path fill-rule="nonzero" d="M15 30C6.7157288 30 0 23.2842712 0 15S6.7157288 0 15 0s15 6.7157288 15 15-6.7157288 15-15 15Zm0-2c7.1797017 0 13-5.8202983 13-13S22.1797017 2 15 2 2 7.8202983 2 15s5.8202983 13 13 13Z"/>
    <path d="M11.296 13.8252748c-.188 0-.358-.071-.492-.204-.134-.134-.204-.304-.204-.492 0-.189.07-.359.204-.492l3.721-3.722c.133-.132.303-.203.492-.203.191 0 .357.069.492.203.135.136.204.301.204.493s-.069.358-.204.492l-2.533 2.533h6.203c.192.001.357.069.492.204.133.133.204.303.204.492 0 .188-.071.358-.204.492-.136.135-.301.204-.492.204Zm4.78 6.9711c-.272.272-.715.271-.984 0-.135-.135-.204-.3-.205-.492.001-.192.07-.357.205-.492l2.533-2.533h-6.213c-.19 0-.355-.068-.491-.203-.136-.136-.204-.302-.204-.493 0-.192.068-.357.203-.492.137-.135.302-.203.491-.204h7.893c.192.001.358.069.493.204.134.135.203.301.203.492s-.068.356-.203.492Z"/>
  </g>
</svg>
