<svg xmlns="http://www.w3.org/2000/svg" viewBox="0 0 63.405 41.682" height="157.54" width="239.639">
  <g transform="matrix(.26458 0 0 .26458 0 0)" fill-rule="nonzero" fill="none">
    <ellipse cx="119.346" cy="111.231" rx="28.616" ry="3.026" opacity=".1" fill="#000"/>
    <path d="M222.224 129.273a59.306 59.306 0 01-2.293 1.916c-.132.107-.267.209-.4.317a80.5 80.5 0 01-8.76 5.916l-.568.332c-.138.083-.274.16-.417.237-3.183 1.838-6.484 3.529-9.824 5.13l-.036.02-.252.118a202.26 202.26 0 01-8.204 3.708l-.066.025c-1.252.526-2.503 1.04-3.754 1.539-.51.208-1.024.402-1.537.6-.965.37-1.933.732-2.909 1.08l-.12.046-.21.073-.26.096c-2.545.91-5.125 1.749-7.738 2.52l-.046.012c-1.823.53-3.657 1.022-5.503 1.474l-.253.063c-2.71.654-5.465 1.217-8.237 1.668l-.638.102c-2.027.318-4.068.578-6.122.78-11.55 1.115-23.239.208-34.718-1.347-23.18-3.145-46.054-9.04-66.916-18.28a194.76 194.76 0 01-11.778-5.693c-.03-.017-.058-.033-.09-.048a168.66 168.66 0 01-6.816-3.785c-.657-.38-1.31-.767-1.958-1.157a173.906 173.906 0 01-5.512-3.46l-.488-.325-.187-.127a90.467 90.467 0 01-.788-.534c-9.801-6.673-18.54-14.76-22.67-24.88-4.771-11.677-1.718-26.483 10.1-33.385 4.061-2.378 8.783-3.668 13.554-4.734l.488-.108c.807-.178 1.614-.349 2.417-.52 2.813-.596 5.64-1.188 8.44-1.85 1.46-.343 2.906-.704 4.342-1.094l.589-.163a70.335 70.335 0 0010.136-3.57h.021c.352-.156.7-.319 1.043-.486.22-.104.442-.208.663-.323 3.545-1.764 7.298-4.21 10.187-7.125.231-.234.456-.472.675-.71.17-.185.336-.373.496-.56 2.025-2.36 3.427-4.982 3.694-7.764a9.996 9.996 0 00-.126-2.8c-.327-1.75-.644-3.462-.877-5.132-.436-3.139-.584-6.14.02-9.032.616-2.948 2.01-5.787 4.674-8.54.401-.416.834-.833 1.299-1.25A27.334 27.334 0 0181.212 3.7l.982-.417C89.51.322 98.3-.295 106.511.113a132.708 132.708 0 0122.784 3.17c.594.133 1.189.273 1.779.417a157.892 157.892 0 0118.767 5.803c15.928 5.991 30.961 14.31 45.005 23.49l.418.27a294.369 294.369 0 015.086 3.397l.744.507c.367.25.732.501 1.095.753l1.118.773c.052.032.102.068.15.107l.95.659c.551.383 1.097.77 1.646 1.157l1.176.834c.244.175.49.349.734.526l1.251.913.28.209c.058.041.116.083.173.129l.035.023c3.39 2.488 6.7 5.067 9.801 7.801l.4.354.042.038c.338.3.676.605 1.007.911 4.05 3.687 7.678 7.65 10.644 12.028 13.621 20.228 9.578 48.235-9.372 64.89z" opacity=".1" fill="#05989a"/>
    <path d="M120.55 147.258s-1.99-9.568-8.292-6.662a1.67 1.67 0 00-1.47 1.298s.494-.118.587.877c.034.353.111.701.23 1.036.158.452.457.841.854 1.11 0 0 1.811 2.347 6.416 2.2 0 0 1.15.504 1.384.409l-1.11-1.404s-.998.855-2.066.686c0 0 2.04-.609 1.913-.902-.026-.061-.622-.718-.622-.718s-1.74 1.477-3.383 1.167c0 0 2.532-.402 3.16-1.419l-.957-.956s-1.747 1.658-3.635 1.364c0 0 2.63-.51 3.425-1.559l-1.065-.797s-1.75 1.575-3.317 1.33c0 0 2.982-.896 3.062-1.5 0 0-1.024-.672-1.38-.72 0 0-1.277 1.104-2.182.88 0 0 1.913-.81 1.878-1.033 0 0-1.566-.523-2.5-.367a5.026 5.026 0 012.57.118 2.756 2.756 0 00-1.068-1.16s.972-.118 1.444 1.275c0 0 1.206.456 1.32.638 0 0-.267-1.457-.886-2.232 0 0 1.09.52 1.173 2.42l1.091.778s-.255-1.945-.756-2.665c0 0 1.033.705 1.014 2.87l.957.912s-.09-1.693-.475-2.611c0 0 .816.857.736 2.87l.562.685s-.09-1.234-.147-1.594c-.057-.36.032-.396.032-.396.326.709.45 1.494.354 2.268 0 0 1.058 1.552 1.148 1.505z" opacity=".5" fill="#05989a"/>
    <circle cx="164.064" cy="61.754" r="1" fill="#e6e8ec"/>
    <path d="M98.49 107.47s2.295-1.644 4.678-.625c0 0-.667 1.414-3.628 1.395zm-.285.097s-.613 2.759 1.251 4.548c0 0 1.043-1.168-.14-3.885l-1.11-.663zm-3.04-2.511s.085-2.33 5.36-1.76c0 0 .082 1.5-1.732 2.28-1.814.78-2.68.214-3.628-.52zm-.323-.01s-2.19.796-.025 5.64c0 0 1.46-.383 1.634-2.35.176-1.966-.62-2.606-1.61-3.29zm-3.095-3.174s-.446-3.81 4.93-3.624c0 0 .513 3.445-3.948 4.506zm-3.707-4.179s.569-4.36 5.976-3.274c0 0 .163 3.754-5.063 4.273l-.914-.999zm-2.76-4.363s1.068-4.274 6.425-3.205c0 0-1.117 3.842-6.047 3.962l-.377-.756zm-2.625-4.262s1.043-4.425 6.208-3.305c0 0-1.551 4.225-5.839 4.04zm-1.745-4.077s.72-5.386 5.549-4.39c0 0-1.201 4.926-5.164 5.156zm-1.677-4.944s.903-5.44 5.793-4.056c0 0-1.7 5.174-5.422 4.796l-.37-.74zm-1.099-4.613s1.556-5.465 5.301-5.463c0 0-1.585 5.77-4.946 6.533zm-.757-4.523s1.668-6.57 4.73-6.187c0 0-1.137 5.018-4.588 7.195zm-.54-5.411s1.59-5.484 4.588-5.814c0 0-1.02 5.374-4.465 7.217zm-.557-5.036s2.034-5.505 4.015-5.703c0 0-.77 5.374-3.783 6.585zm-.43-4.692s1.154-5.94 3.116-6.504c0 0-.085 4.825-2.898 6.936l-.217-.432zm-.981-6.124s1.27-4.749 2.848-5.524c0 0-.106 5.542-2.431 6.656zm-.774-4.018l-.609-8.265s3.234 6.13.878 9.71l-.27-1.446zm-2.634-8.136s-2.39-5.957-2.92-6.274c0 0 4.38 3.753 4.171 8.814l-1.25-2.54zm20.138 64.355s-3.82-.35-3.501 5.017c0 0 3.457.417 4.408-4.058zm-3.745-4.294s-4.394.155-3.825 5.63c0 0 3.712.518 4.732-4.633zm-2.603-3.865s-4.06-1.72-6.427 3.204c0 0 3.744 1.418 6.809-2.44l-.382-.765zm-2.683-4.578s-4.16-1.833-6.377 2.974c0 0 4.31 1.3 6.741-2.24zm-1.602-4.006s-4.073-3.603-7.063.313c0 0 4.133 2.934 7.276.515z" fill="#05989a"/>
    <path d="M79.452 79.912s-4.102-3.69-7.059.446c0 0 4.559 2.98 7.23.352l-.17-.798zm-.917-4.651s-3.23-4.675-6.774-3.47c0 0 3.354 4.955 6.782 4.588zm-1.07-4.383s-3.301-5.922-6.162-4.763c0 0 2.39 4.557 6.28 5.774l-.118-1.01zm-.43-5.695s-3.336-4.631-6.268-3.937c0 0 2.76 4.72 6.627 5.3zm-.425-4.838s-2.649-5.238-4.64-5.213c0 0 1.378 5.25 4.508 6.112zm-.665-4.694s-2.92-5.296-4.968-5.228c0 0 1.569 4.565 4.895 5.708zm-.628-5.691s-2.204-4.391-3.906-4.831c0 0 1.224 5.407 3.729 6.026z" fill="#05989a"/>
    <path d="M73.847 45.481l-4.809-6.748s1.426 6.782 5.522 8.039l-.713-1.29zm-3.406-7.391s-5.421-3.442-5.63-4.022c0 0 2.89 5.005 7.903 5.712zm-.379-1.626s-6.285-5.595-7.832-5.53c0 0 5.004.038 7.965 5.213z" fill="#05989a"/>
    <path d="M75.292 50.828l-.221.037c-1.48-8.873-3.337-14.08-5.245-14.66l.065-.208c2.016.61 3.883 5.741 5.4 14.83z" fill="#444053"/>
    <path d="M77.782 72.085l-.332.042a66.882 66.882 0 01-.258-2.527c-.6-7.37-1.354-14.128-2.196-19.185l.183-.246c.834 5.065 1.746 12.024 2.348 19.393.067.853.155 1.702.255 2.523z" fill="#444053"/>
    <path d="M104.88 111.479c-.06-.025-6.035-2.421-12.372-8.446a48.44 48.44 0 01-9.269-12.12c-3.038-5.63-5.028-12.62-5.866-19.451l.355.15c1.876 15.331 9.287 25.578 15.074 31.084 6.275 5.97 12.183 8.34 12.24 8.368z" fill="#444053"/>
    <g opacity=".7">
      <path d="M106.06 101.036s2.682-.887 4.65.79c0 0-1.057 1.153-3.879.252zm-.303.004s-1.405 2.452-.154 4.717c0 0 1.341-.807 1.022-3.754zm-2.156-3.3s.776-2.2 5.63-.085c0 0-.366 1.46-2.33 1.669-1.965.208-2.612-.601-3.3-1.583zm-.304-.089s-2.33.11-1.702 5.378c0 0 1.497.067 2.259-1.756.76-1.822.183-2.692-.557-3.622zm-2.012-3.961s.709-3.771 5.784-1.994c0 0-.536 3.44-5.109 3.127l-.675-1.134zm-2.296-5.1s1.84-3.993 6.673-1.347c0 0-.958 3.623-6.104 2.572l-.57-1.224zm-1.337-4.985s2.294-3.764 7.09-1.15c0 0-2.21 3.337-6.952 1.994zm-1.237-4.851s2.307-3.916 6.913-1.31c0 0-2.738 3.573-6.781 2.12zm-.452-4.412s2.294-4.932 6.598-2.54c0 0-2.613 4.343-6.465 3.384zm-.132-5.218s2.482-4.925 6.738-2.148c0 0-3.163 4.434-6.606 2.955zm.326-4.735s3.111-4.755 6.685-3.64c0 0-3.23 5.039-6.673 4.768zm.621-4.54s3.545-5.779 6.356-4.498c0 0-2.58 4.45-6.516 5.503zm1.097-5.329s3.149-4.76 6.106-4.184c0 0-2.571 4.827-6.41 5.563l.304-1.378zm.963-4.97s3.58-4.653 5.53-4.252c0 0-2.333 4.9-5.57 5.163l.04-.912zm.987-4.609s2.867-5.328 4.91-5.282c0 0-1.517 4.588-4.833 5.76zm.886-6.139s2.623-4.154 4.363-4.427c0 0-1.752 5.261-4.302 5.63l-.06-1.203zm.455-4.069l1.876-8.068s1.266 6.813-2.043 9.536zm-.094-8.547s-.509-6.4-.924-6.86c0 0 3.072 4.891 1.355 9.654zm.079 67.432s-3.545-1.474-4.834 3.754c0 0 3.172 1.437 5.422-2.563l-.588-1.19zm-2.298-5.215s-4.24-1.16-5.328 4.246c0 0 3.389 1.599 5.897-3.016zm-1.335-4.465s-3.363-2.848-7.09 1.15c0 0 3.151 2.466 7.226-.305zm-1.201-5.168s-3.424-2.987-6.97.948c0 0 3.726 2.523 7.102-.136l-.132-.811zm-.335-4.301s-2.818-4.652-6.836-1.804c0 0 3.072 4.033 6.792 2.657z" fill="#05989a"/>
      <path d="M96.082 69.057s-2.82-4.74-6.882-1.667c0 0 3.466 4.202 6.798 2.488l.084-.82zm.504-4.712s-1.69-5.422-5.434-5.328c0 0 1.729 5.73 5.109 6.408zm.286-4.502s-1.39-6.636-4.467-6.38c0 0 .926 5.062 4.28 7.38zm1.285-5.566s-1.808-5.422-4.815-5.63c0 0 1.234 5.33 4.75 7.033zm1.032-4.744s-.97-5.789-2.88-6.354c0 0-.246 5.422 2.488 7.178zm.771-4.68s-1.215-5.926-3.186-6.464c0 0 .138 4.823 2.976 6.904zm1.085-5.617s-.799-4.849-2.294-5.779c0 0-.44 5.528 1.766 6.865z" fill="#05989a"/>
      <path d="M100.974 34.52l-2.584-7.87s-.657 6.9 2.88 9.319l-.296-1.447zm-1.054-8.067s-4.151-4.9-4.17-5.518c0 0 1.27 5.63 5.839 7.803l-1.668-2.285zm.122-1.666s-4.336-7.214-5.84-7.612c0 0 4.772 1.527 6.048 7.349z" fill="#05989a"/>
      <path d="M100.761 40.055l-.22-.031c1.225-8.91.996-14.437-.647-15.557l.127-.183c1.741 1.186 1.998 6.637.74 15.771z" fill="#444053"/>
      <path d="M96.816 61.092l-.33-.06c.15-.825.32-1.67.507-2.49 1.618-7.214 2.92-13.89 3.61-18.977l.248-.18c-.7 5.087-1.91 12-3.533 19.221a67.99 67.99 0 00-.502 2.486z" fill="#444053"/>
      <path d="M110.967 106.762c-.05-.04-5.043-4.108-9.299-11.742a48.438 48.438 0 01-5.253-14.33c-1.226-6.282-1.042-13.555.186-20.316l.294.248c-2.763 15.198 1.251 27.184 5.144 34.162 4.215 7.565 9.149 11.59 9.199 11.63z" fill="#444053"/>
    </g>
    <path d="M165.35 46.001l-1.553-1.57a4.89 4.89 0 00-6.913 0l-30.483 30.482L95.914 44.43a4.892 4.892 0 00-6.913 0l-1.57 1.571a4.89 4.89 0 000 6.913l30.486 30.487-30.487 30.483a4.892 4.892 0 000 6.913l1.571 1.571a4.89 4.89 0 006.913 0l30.487-30.483 30.483 30.483a4.89 4.89 0 006.913 0l1.571-1.57a4.886 4.886 0 000-6.914l-30.483-30.483 30.465-30.497a4.885 4.885 0 000-6.903z" fill="#ff2268"/>
    <path d="M86.99 46.992a4.893 4.893 0 016.914 0L124.39 77.48l30.483-30.488a4.892 4.892 0 016.913 0l1.571 1.571a4.889 4.889 0 011.074 5.257l.905-.906a4.882 4.882 0 000-6.913l-1.539-1.57a4.89 4.89 0 00-6.913 0l-30.483 30.482L95.914 44.43a4.892 4.892 0 00-6.913 0l-1.57 1.571a4.903 4.903 0 00-1.075 1.657l.633-.666z" opacity=".1" fill="#000"/>
    <path d="M156.793 126.21s-6.377-.382-5.63 4.087c-.079.464.15.927.567 1.147 0 0 0-.332.653-.22.229.04.462.051.694.034.313-.02.61-.143.847-.348 0 0 1.79-.74 2.49-3.672 0 0 .515-.639.494-.803l-1.076.46s.369.776.079 1.42c0 0-.036-1.392-.242-1.359-.042 0-.559.27-.559.27s.626 1.35.154 2.335c0 0 .182-1.669-.352-2.238l-.757.442s.738 1.397.238 2.536c0 0 .13-1.748-.399-2.427l-.686.533s.695 1.377.272 2.323c0 0-.055-2.035-.418-2.19 0 0-.6.53-.692.75 0 0 .476.998.182 1.526 0 0-.182-1.358-.33-1.362 0 0-.598.897-.661 1.512a3.26 3.26 0 01.515-1.6 1.811 1.811 0 00-.915.476s.091-.625 1.063-.692c0 0 .494-.68.626-.722 0 0-.966-.081-1.552.18 0 0 .515-.6 1.727-.328l.678-.552s-1.27-.176-1.81.016c0 0 .625-.53 1.993-.144l.738-.44s-1.084-.234-1.73-.15c0 0 .681-.367 1.947.032l.529-.239s-.796-.157-1.03-.18c-.234-.022-.244-.09-.244-.09a2.771 2.771 0 011.491.169s1.125-.42 1.106-.49zM156.232 93.073s-3.238 5.507 1.088 6.867c.378.281.895.288 1.28.017 0 0-.29-.161.1-.682.139-.187.255-.39.346-.603.122-.289.148-.609.073-.913 0 0 .153-1.933-2.141-3.885 0 0-.336-.751-.49-.807l-.08 1.167s.858.026 1.302.576c0 0-1.251-.6-1.322-.402-.013.041-.015.625-.015.625s1.493.05 2.152.922c0 0-1.401-.918-2.154-.7l.05.875s1.579-.025 2.369.938c0 0-1.5-.909-2.344-.748l.165.855s1.543 0 2.192.811c0 0-1.838-.874-2.14-.626 0 0 .209.776.35.958 0 0 1.108.029 1.443.531 0 0-1.29-.454-1.363-.325 0 0 .53.94 1.042 1.276a3.269 3.269 0 01-1.19-1.186c-.104.34-.104.702 0 1.042 0 0-.524-.37-.132-1.25 0 0-.384-.75-.36-.887 0 0-.51.824-.545 1.46 0 0-.3-.732.492-1.69l-.183-.855s-.733 1.056-.808 1.623c0 0-.19-.795.778-1.841l-.059-.858s-.7.86-.917 1.473c0 0-.02-.774.909-1.72l.029-.578s-.5.638-.626.834c-.125.196-.19.177-.19.177.154-.485.439-.919.824-1.251 0 0 .146-1.205.075-1.22zM125.5 50.385s-3.236 5.51 1.086 6.867c.378.283.895.29 1.28.017 0 0-.29-.16.102-.682.138-.187.254-.389.344-.603.123-.288.15-.609.073-.913 0 0 .155-1.933-2.14-3.885 0 0-.337-.748-.49-.805l-.08 1.166s.86.025 1.301.576c0 0-1.25-.6-1.32-.403-.015.042-.015.626-.015.626s1.491.05 2.15.921c0 0-1.4-.917-2.154-.7l.052.876s1.58-.026 2.367.938c0 0-1.5-.907-2.344-.749l.165.855s1.543 0 2.193.814c0 0-1.839-.876-2.14-.626 0 0 .207.774.351.955 0 0 1.106.03 1.441.532 0 0-1.29-.455-1.36-.326 0 0 .526.943 1.041 1.277a3.274 3.274 0 01-1.193-1.185c-.1.336-.1.694 0 1.03 0 0-.523-.37-.13-1.26 0 0-.385-.75-.36-.888 0 0-.51.824-.546 1.46 0 0-.3-.732.494-1.689l-.185-.855s-.732 1.056-.805 1.622c0 0-.192-.794.775-1.84l-.058-.858s-.7.86-.917 1.472c0 0-.02-.773.91-1.718l.028-.58s-.5.638-.626.834c-.125.196-.19.178-.19.178a2.75 2.75 0 01.835-1.25s.135-1.176.064-1.2zM55.776 8.661S43.721 17.42 51.7 24.356c0 0 .903 1.643 2.724 1.228 0 0-.47-.613.853-1.364.47-.27.905-.594 1.297-.967.53-.5.884-1.159 1.007-1.877 0 0 2.131-3.99-.957-10.302 0 0-.019-1.916-.3-2.18l-1.25 2.422s1.811.853 2.247 2.444c0 0-2.129-2.458-2.452-2.085-.065.073-.609 1.314-.609 1.314s3.147 1.497 3.743 3.975c0 0-2.144-3.27-3.962-3.507l-.707 1.92s3.401 1.42 4.19 4.215c0 0-2.36-3.337-4.317-3.785l-.442 1.983s3.29 1.45 3.93 3.78c0 0-3.127-3.584-4-3.319 0 0-.297 1.843-.14 2.371 0 0 2.34 1.095 2.59 2.481 0 0-2.338-2.172-2.614-1.964 0 0 .255 2.503 1.056 3.706 0 0-1.312-1.687-1.446-3.645 0 0-.894 1.042-.944 2.212 0 0-.776-1.282.89-2.82 0 0-.119-1.96.06-2.233 0 0-1.86 1.287-2.53 2.622 0 0 .04-1.844 2.627-3.15l.4-2s-2.546 1.57-3.232 2.71c0 0 .331-1.877 3.374-3.216l.675-1.887s-2.293 1.188-3.336 2.294c0 0 .682-1.668 3.545-2.83l.598-1.21s-1.668.897-2.116 1.198c-.449.3-.574.208-.574.208a6.414 6.414 0 012.932-1.912s1.406-2.427 1.266-2.525zM44.066 37.561s-15.59-6.556-17.635 5.265c0 0-1.066 1.844.417 3.366 0 0 .32-.817 1.827.027a7.71 7.71 0 001.701.692c.8.221 1.651.176 2.424-.129 0 0 5.125-.277 9.44-6.986 0 0 1.847-1.142 1.941-1.572l-3.092.21s.237 2.261-1.043 3.62c0 0 1.136-3.513.59-3.61-.11-.02-1.633.18-1.633.18s.394 3.933-1.668 5.97c0 0 1.914-4.003 1.08-5.9l-2.279.44s.626 4.14-1.63 6.545c0 0 1.853-4.254 1.138-6.414L33.46 40s.527 4.047-1.36 6.047c0 0 1.647-5.132.872-5.839 0 0-1.965.797-2.386 1.251 0 0 .313 2.92-.888 3.973 0 0 .738-3.545.373-3.69 0 0-2.284 1.717-2.98 3.2 0 0 .87-2.265 2.692-3.545 0 0-1.53-.26-2.71.381 0 0 .79-1.503 3.263-.79 0 0 1.833-1.27 2.2-1.25 0 0-2.34-1.044-4.03-.914 0 0 1.811-1.043 4.601.698l2.175-.788s-3.022-1.55-4.538-1.543c0 0 2.015-.78 5.105 1.39l2.232-.462s-2.503-1.533-4.192-1.887c0 0 2.025-.322 4.834 1.782l1.526-.127s-1.847-1.088-2.406-1.353c-.56-.265-.534-.436-.534-.436 1.33.231 2.57.827 3.58 1.723 0 0 3.164-.065 3.178-.259zM34.73 21.008s-5.527-12.777-13.474-6.917c0 0-1.683.488-1.67 2.231 0 0 .656-.304 1.069 1.057.154.483.364.945.626 1.38.35.586.88 1.044 1.514 1.302 0 0 3.203 2.757 9.592 1.228 0 0 1.75.373 2.05.173l-1.954-1.64s-1.147 1.48-2.686 1.55c0 0 2.676-1.438 2.407-1.807-.055-.075-1.072-.822-1.072-.822s-2.008 2.56-4.38 2.6c0 0 3.418-1.288 4.002-2.888l-1.605-1.042s-2.017 2.821-4.726 2.97c0 0 3.524-1.47 4.33-3.164l-1.715-.799s-1.993 2.71-4.247 2.813c0 0 3.9-2.11 3.84-2.97 0 0-1.62-.648-2.133-.61 0 0-1.474 1.908-2.79 1.853 0 0 2.459-1.687 2.323-1.98 0 0-2.335-.28-3.593.208 0 0 1.806-.85 3.618-.57 0 0-.76-1.029-1.824-1.315 0 0 1.328-.444 2.39 1.387 0 0 1.812.292 2.022.508 0 0-.792-1.958-1.877-2.84 0 0 1.669.417 2.338 3.038l1.74.774s-.91-2.644-1.815-3.5c0 0 1.64.683 2.242 3.732l1.582.998s-.613-2.335-1.411-3.51c0 0 1.384.964 1.856 3.815l.98.792s-.48-1.697-.661-2.173c-.182-.475-.067-.563-.067-.563a5.998 5.998 0 011.145 3.062s1.918 1.75 2.035 1.64z" opacity=".5" fill="#05989a"/>
    <g opacity=".5" fill="#05989a">
      <path d="M142.474 27.656s-1.303-6.256-5.422-4.356a1.09 1.09 0 00-.96.849s.324-.078.385.573c.023.23.072.458.148.678.104.296.3.55.56.726 0 0 1.185 1.534 4.194 1.438 0 0 .753.33.907.267l-.727-.917s-.653.559-1.35.448c0 0 1.335-.398 1.252-.59-.02-.04-.407-.47-.407-.47s-1.139.966-2.213.764c0 0 1.654-.263 2.067-.928l-.626-.615s-1.155 1.08-2.385.894c0 0 1.72-.333 2.24-1.02l-.697-.52s-1.147 1.03-2.17.869c0 0 1.95-.588 2-.98 0 0-.666-.44-.902-.471 0 0-.834.72-1.424.575 0 0 1.25-.53 1.228-.675 0 0-1.024-.342-1.635-.24a3.276 3.276 0 011.68.077 1.8 1.8 0 00-.7-.76s.638-.076.947.835c0 0 .786.298.861.417 0 0-.175-.953-.58-1.46 0 0 .714.34.77 1.583l.711.509s-.165-1.272-.492-1.743c0 0 .673.46.66 1.876l.627.597s-.059-1.108-.31-1.708c0 0 .533.56.48 1.877l.368.448s-.057-.807-.094-1.043c-.038-.235.02-.26.02-.26.214.464.294.978.232 1.484 0 0 .694 1.01.757.972z"/>
    </g>
  </g>
</svg>
