<svg width="20" height="20" viewBox="0 0 20 20" fill="none" xmlns="http://www.w3.org/2000/svg">
<path d="M9.9999 19.2C4.70619 19.2 0.399902 14.8937 0.399902 9.6C0.399902 4.30629 4.70619 0 9.9999 0C10.4415 0 10.7999 0.358389 10.7999 0.799954C10.7999 1.24152 10.4415 1.59991 9.9999 1.59991C5.5887 1.59991 2.00002 5.18859 2.00002 9.59979C2.00002 14.011 5.5887 17.5997 9.9999 17.5997C14.4111 17.5997 17.9998 14.011 17.9998 9.59979C17.9998 9.15823 18.3574 8.79984 18.7997 8.79984C19.2421 8.79984 19.5997 9.15823 19.5997 9.59979C19.5997 14.8935 15.2934 19.1998 9.9997 19.1998L9.9999 19.2ZM9.9999 1.60011C9.79191 1.60011 9.58391 1.51212 9.43192 1.36815C9.28795 1.21614 9.19996 1.00815 9.19996 0.800174C9.19996 0.592183 9.28795 0.384185 9.43192 0.232197C9.73594 -0.0637852 10.2719 -0.0637852 10.5679 0.232197C10.7119 0.384206 10.7999 0.592197 10.7999 0.800174C10.7999 1.00816 10.7119 1.21616 10.5679 1.36815C10.4159 1.51212 10.2079 1.60011 9.99994 1.60011H9.9999ZM17.3919 6.53589C17.224 6.12795 17.4151 5.65584 17.824 5.48791C18.2319 5.31996 18.704 5.51188 18.8719 5.91998C19.0399 6.32791 18.848 6.80002 18.4399 6.96795C18.3358 7.008 18.2319 7.03197 18.1359 7.03197C17.8159 7.03197 17.5191 6.84795 17.3919 6.53603L17.3919 6.53589ZM15.6551 3.94382C15.3431 3.63176 15.3431 3.11976 15.6551 2.80783C15.968 2.49577 16.4719 2.49577 16.7831 2.80783C17.0959 3.11988 17.0959 3.63189 16.7831 3.94382C16.6318 4.09583 16.4238 4.17578 16.2239 4.17578C16.0159 4.17578 15.816 4.09583 15.6551 3.94382H15.6551ZM13.0639 2.20783C12.6551 2.03988 12.4639 1.56778 12.6318 1.15985C12.7998 0.75192 13.2638 0.559851 13.6798 0.727783C14.0877 0.895728 14.2798 1.36783 14.1038 1.77576C13.9838 2.07978 13.6798 2.26378 13.3679 2.26378C13.2638 2.26378 13.1599 2.24785 13.0638 2.2078L13.0639 2.20783ZM18.7999 10.3997C18.5919 10.3997 18.3831 10.3117 18.2319 10.1678C18.0871 10.0157 17.9999 9.80775 17.9999 9.59977C17.9999 9.3918 18.0871 9.18379 18.2319 9.0318C18.5359 8.73582 19.0719 8.73582 19.3679 9.0318C19.5119 9.18381 19.5999 9.3918 19.5999 9.59977C19.5999 9.80775 19.5119 10.0158 19.3679 10.1678C19.2159 10.3117 19.0079 10.3997 18.7999 10.3997H18.7999ZM13.199 11.9998C13.079 11.9998 12.9566 11.9726 12.8422 11.9158L9.64223 10.3157C9.37103 10.1798 9.19988 9.90298 9.19988 9.59975V3.99987C9.19988 3.5583 9.55827 3.19991 9.99983 3.19991C10.4414 3.19991 10.7998 3.5583 10.7998 3.99987V9.10535L13.5574 10.4846C13.9526 10.6821 14.1125 11.1629 13.915 11.5581C13.775 11.8382 13.4926 11.9997 13.199 11.9997L13.199 11.9998Z" fill="white"/>
</svg>
