<svg width="18" height="24" viewBox="0 0 18 24" fill="none" xmlns="http://www.w3.org/2000/svg">
<mask id="mask0_271_3908" style="mask-type:alpha" maskUnits="userSpaceOnUse" x="0" y="0" width="18" height="18">
<path fill-rule="evenodd" clip-rule="evenodd" d="M0 0.867432H17.9535V17.2553H0V0.867432Z" fill="white"/>
</mask>
<g mask="url(#mask0_271_3908)">
<path fill-rule="evenodd" clip-rule="evenodd" d="M0.828674 17.2552C1.28896 17.2552 1.65753 16.8824 1.65753 16.4168V4.37944H13.3961V5.59063C13.3961 5.82299 13.5118 6.03367 13.7184 6.14898C13.811 6.19579 13.9258 6.24261 14.0407 6.24261C14.1564 6.24261 14.2712 6.2192 14.363 6.14898L17.6552 4.12367C17.8395 4.0075 17.9535 3.79855 17.9535 3.56533C17.9535 3.33211 17.8395 3.1223 17.6552 3.00612L14.3407 0.957409C14.1324 0.840364 13.9027 0.840364 13.6961 0.934C13.4887 1.05104 13.3738 1.2834 13.3738 1.51662V2.72695H0.828674C0.368388 2.72695 -0.000183105 3.09975 -0.000183105 3.56533V16.4411C-0.000183105 16.8824 0.368388 17.2552 0.828674 17.2552Z" fill="#13CDC2"/>
</g>
<mask id="mask1_271_3908" style="mask-type:alpha" maskUnits="userSpaceOnUse" x="0" y="6" width="18" height="17">
<path fill-rule="evenodd" clip-rule="evenodd" d="M0.0687256 6.59229H18V22.9827H0.0687256V6.59229Z" fill="white"/>
</mask>
<g mask="url(#mask1_271_3908)">
<path fill-rule="evenodd" clip-rule="evenodd" d="M17.1713 6.59229C16.711 6.59229 16.3424 6.96509 16.3424 7.43067V19.4672H4.62615V18.256C4.62615 18.0236 4.5113 17.8138 4.30473 17.6976C4.0973 17.5814 3.84444 17.5814 3.66015 17.721L0.367868 19.7463C0.18444 19.8634 0.0687256 20.0723 0.0687256 20.3047C0.0687256 20.5379 0.18444 20.7477 0.367868 20.8639L3.66015 22.8901C3.75187 22.9594 3.86758 22.9828 3.98244 22.9828C4.0973 22.9828 4.18901 22.9594 4.30473 22.8901C4.5113 22.773 4.62615 22.5641 4.62615 22.3308V21.1205H17.1713C17.6316 21.1205 18.0002 20.7477 18.0002 20.2821V7.43067C18.0002 6.96509 17.6316 6.59229 17.1713 6.59229Z" fill="#13CDC2"/>
</g>
<path fill-rule="evenodd" clip-rule="evenodd" d="M9.79688 14.0319H7.84946V12.4141H9.33917H9.79688C10.2357 12.4141 10.5923 12.7756 10.5923 13.2273C10.5923 13.6704 10.2357 14.0319 9.79688 14.0319ZM7.84946 9.40822H9.33917C9.77888 9.40822 10.1355 9.76889 10.1355 10.2215C10.1355 10.6654 9.77888 11.026 9.33917 11.026H7.84946V9.40822ZM11.9629 13.2187C11.9629 12.5086 11.6235 11.8826 11.104 11.4829C11.3552 11.124 11.506 10.687 11.506 10.2128C11.506 9.47672 11.1435 8.8282 10.5923 8.43025V7.78954C10.5923 7.40633 10.2846 7.09595 9.9066 7.09595C9.5286 7.09595 9.22088 7.40633 9.22088 7.78954V8.02016H8.76317V7.78954C8.76317 7.40633 8.45631 7.09595 8.07746 7.09595C7.69946 7.09595 7.39174 7.40633 7.39174 7.78954V8.02016H7.16374C6.78488 8.02016 6.47803 8.33142 6.47803 8.71376V11.7196V14.7255C6.47803 15.1078 6.78488 15.4191 7.16374 15.4191H7.39174V15.6497C7.39174 16.0329 7.69946 16.3433 8.07746 16.3433C8.45631 16.3433 8.76317 16.0329 8.76317 15.6497V15.4191H9.22088V15.6497C9.22088 16.0329 9.5286 16.3433 9.9066 16.3433C10.2846 16.3433 10.5923 16.0329 10.5923 15.6497V15.2613C11.3937 14.9388 11.9629 14.1498 11.9629 13.2187Z" fill="#13CDC2"/>
</svg>
