<svg width="22" height="24" viewBox="0 0 22 24" fill="none" xmlns="http://www.w3.org/2000/svg">
<path fill-rule="evenodd" clip-rule="evenodd" d="M8.52226 2.93652L6.60487 2.42251C5.64368 2.1647 4.6543 2.73627 4.39648 3.69747L3.78806 5.96728H1.80327C0.807866 5.96728 0 6.77515 0 7.77055V22.1967C0 23.1921 0.807866 24 1.80327 24H11.4209C12.4163 24 13.2242 23.1921 13.2242 22.1967V21.8469L13.7945 19.719L21.1441 7.52324C21.146 7.52022 21.1484 7.5166 21.1502 7.51358C21.6479 6.65162 21.3516 5.54812 20.4902 5.05036L12.1612 0.241704C11.2992 -0.256009 10.1957 0.0396396 9.69796 0.90165L8.52279 2.93698L8.52226 2.93652ZM4.26062 7.16937H4.24009H1.80325C1.47138 7.16937 1.20209 7.43866 1.20209 7.77053V22.1967C1.20209 22.5286 1.47138 22.7979 1.80325 22.7979H11.4209C11.7527 22.7979 12.022 22.5286 12.022 22.1967V21.7783V21.7578V7.77055C12.022 7.43868 11.7527 7.16939 11.4209 7.16939H4.26085L4.26062 7.16937ZM6.92106 10.9051C6.73107 10.7904 6.49299 10.7904 6.30321 10.9051L3.29782 12.7084C3.11629 12.8167 3.0056 13.0125 3.0056 13.2236V16.8302C3.0056 17.0411 3.11629 17.2371 3.29782 17.3454L6.30321 19.1487C6.4932 19.2634 6.73129 19.2634 6.92106 19.1487L9.92645 17.3454C10.108 17.2371 10.2187 17.0413 10.2187 16.8302V13.2236C10.2187 13.0127 10.108 12.8167 9.92645 12.7084L6.92106 10.9051ZM6.61213 12.1212L9.01656 13.5638V16.4899L6.61213 17.9325L4.2077 16.4899V13.5638L6.61213 12.1212ZM8.64808 4.21458L6.29414 3.58405C5.97373 3.49811 5.64367 3.68871 5.55773 4.00911L5.03303 5.96757H11.4207C12.4161 5.96757 13.224 6.77543 13.224 7.77084V17.202L16.0088 6.80995C16.0948 6.48895 15.9042 6.15949 15.5838 6.07355L8.66693 4.22035C8.66089 4.21854 8.65425 4.21673 8.64761 4.21492L8.64808 4.21458ZM14.9183 15.5252C17.0967 11.9102 20.1123 6.90609 20.1148 6.90249C20.2728 6.6169 20.1732 6.25506 19.8894 6.09101L11.5604 1.28236C11.273 1.11652 10.9053 1.21494 10.7392 1.50233L9.72504 3.2581L15.8953 4.91165C16.8571 5.16886 17.4281 6.15884 17.1709 7.12004L14.9183 15.5252Z" fill="#6B7387"/>
</svg>
