<svg xmlns="http://www.w3.org/2000/svg" viewBox="0 0 30 30">
  <g fill="#FF2268">
    <path d="m18 11.25.017448.0002017a.7543062.7543062 0 0 1 .059956.003779L18 11.25c.0468456 0 .092688.0042949.137155.0125124.0108778.0020634.0225711.0045023.034212.0072223.0234602.0054362.0459164.0118446.0679167.0192456.0098076.0033227.0201728.0070482.0304682.011009.0193423.0074602.037762.0154557.055781.0241505.014458.0069186.0290915.0145621.0435124.022721.0174628.0099522.0346128.0206005.0512838.0319021.0103321.0069224.0208.0144128.0311125.0222048.056757.0429342.1070888.0935047.14956.1502953l-.0706715-.081593c.0370533.0370532.069419.077019.0970972.1191602.0131649.020155.025545.0411423.0369017.0627515.0048336.009122.0091902.0178527.013366.0266479.012747.0267885.0242516.0552483.034002.08451.0022584.0069436.0041829.0130148.0060282.0191049.0113562.0370895.019981.0762324.0254282.116385L18.75 12v6c0 .4142136-.3357864.75-.75.75-.3796958 0-.693491-.2821539-.7431534-.6482294L17.25 18v-4.19l-4.71967 4.72033c-.2928931.2928933-.7677669.2928933-1.06066 0-.2662666-.2662665-.2904727-.6829302-.0726182-.9765417l.0726181-.0841184L16.188 12.75H12c-.3796958 0-.693491-.2821539-.7431534-.6482294L11.25 12c0-.3796958.2821539-.693491.6482294-.7431534L12 11.25h6Z"/>
    <path d="M15 0c8.2842712 0 15 6.7157288 15 15s-6.7157288 15-15 15S0 23.2842712 0 15 6.7157288 0 15 0Zm0 2C7.8202982 2 2 7.8202982 2 15c0 7.1797017 5.8202982 13 13 13 7.1797017 0 13-5.8202983 13-13 0-7.1797018-5.8202983-13-13-13Z"/>
  </g>
</svg>
