<svg xmlns="http://www.w3.org/2000/svg" viewBox="0 0 18.14 21.109" height="79.782" width="68.562">
  <g transform="matrix(.26458 0 0 .26458 -.199 0)" fill="#13cdc2" fill-rule="nonzero">
    <path d="M67.257 24.345a6.894 6.894 0 00-.92-.74l.92-.92a6.813 6.813 0 00-5.771-11.615V8.05A8.058 8.058 0 0053.436 0H20.064a8.058 8.058 0 00-8.05 8.05v13.023a7.122 7.122 0 00-5.698 5.193L.97 47.462a7.676 7.676 0 00-.155 2.783l1.099 8.417c.235 1.78-.013 3.59-.716 5.241a2.041 2.041 0 103.744 1.628 14.106 14.106 0 001-7.374l-1.106-8.384a3.581 3.581 0 01.081-1.294l5.3-21.163a3.02 3.02 0 013.45-2.19 3.003 3.003 0 012.385 3.631L13.35 42.033c-.136.679.082 1.38.578 1.864.049.048 5.014 4.973 5.014 12.005a2.035 2.035 0 104.07 0 22.172 22.172 0 00-5.47-14.09l2.49-12.298a7.065 7.065 0 00-3.964-7.936V8.05a3.98 3.98 0 013.98-3.98H53.42a3.98 3.98 0 013.98 3.98v5.136l-1.726 1.726a6.805 6.805 0 00.92 10.418l-.92.92a6.797 6.797 0 00.92 10.378l-.911.912a6.83 6.83 0 00.903 10.418l-.903.904a6.82 6.82 0 001.725 10.907v1.628a3.98 3.98 0 01-3.98 3.98H28.879a2.035 2.035 0 100 4.07h14.016a15.547 15.547 0 01-9.092 6.267 2.041 2.041 0 10.489 4.053c.164.002.328-.018.488-.057a19.624 19.624 0 0012.86-10.223h5.796a8.058 8.058 0 008.05-8.05v-.96a6.788 6.788 0 003.866-1.921l1.913-1.913a6.837 6.837 0 000-9.662 6.829 6.829 0 00-.912-.757l.912-.911a6.797 6.797 0 00-.912-10.41l.912-.912a6.837 6.837 0 00-.008-9.646zm-8.652 8.685a2.76 2.76 0 010-3.907l1.912-1.913a2.76 2.76 0 113.9 3.907l-1.914 1.913a2.76 2.76 0 01-3.898 0zm5.811-17.15a2.767 2.767 0 010 3.907L62.503 21.7a2.824 2.824 0 01-3.906 0 2.76 2.76 0 010-3.907l1.912-1.913a2.76 2.76 0 013.9 0zm-5.811 28.472a2.76 2.76 0 010-3.899l1.912-1.912a2.763 2.763 0 013.907 3.907l-1.912 1.912a2.824 2.824 0 01-3.907-.008zm5.811 9.41l-1.945 1.912a2.76 2.76 0 11-3.866-3.898l1.912-1.913a2.763 2.763 0 013.907 3.907z"/>
    <path d="M31.126 58.515c0 1.124.91 2.035 2.034 2.035h7.163a2.035 2.035 0 000-4.07H33.16a2.035 2.035 0 00-2.034 2.035zM25.753 33.91a2.035 2.035 0 001.213 1.481c.124.05.252.088.383.114.133.011.266.011.399 0 .132.011.266.011.399 0a2.133 2.133 0 00.733-.301 2.385 2.385 0 00.562-.562c.07-.112.132-.23.186-.35.05-.124.088-.252.114-.383a2.19 2.19 0 000-.399 2.263 2.263 0 000-.398 1.977 1.977 0 00-.114-.375 2.442 2.442 0 00-.187-.358 2.89 2.89 0 00-.253-.31 2.97 2.97 0 00-.309-.252 2.49 2.49 0 00-.358-.187 2.034 2.034 0 00-.374-.114 1.872 1.872 0 00-.814 0c-.131.026-.26.064-.383.114a2.442 2.442 0 00-.35.187 1.913 1.913 0 00-.31.253 2.222 2.222 0 00-.252.31 1.84 1.84 0 00-.187.357c-.05.12-.088.246-.114.375a1.628 1.628 0 000 .398c-.01.134-.005.268.016.4z"/>
    <circle cx="36.742" cy="33.51" r="2.035"/>
    <path d="M43.742 33.91c.057.26.162.509.31.732.071.112.156.216.251.31.092.096.196.18.31.251.11.076.227.139.35.188.123.05.251.088.382.114.133.012.267.012.4 0a2.06 2.06 0 001.464-.554 2.091 2.091 0 00.44-.66c.052-.123.093-.25.122-.382a2.124 2.124 0 000-.399 2.181 2.181 0 000-.398 2.06 2.06 0 00-.122-.375 1.888 1.888 0 00-.187-.358 2.027 2.027 0 00-2.084-.863 2.1 2.1 0 00-.383.114 2.442 2.442 0 00-.35.187 1.937 1.937 0 00-.561.562 1.889 1.889 0 00-.187.358c-.053.12-.094.246-.123.375-.025.131-.039.265-.04.398-.01.133-.007.267.008.4zM25.867 25.314c.05.123.113.24.188.35a2.027 2.027 0 001.693.903c.132.017.266.017.399 0 .129-.022.254-.06.374-.114.125-.05.245-.113.358-.187.11-.072.21-.157.301-.252.1-.092.187-.196.26-.31a2.37 2.37 0 00.188-.35c.05-.123.089-.251.114-.382a2.19 2.19 0 000-.399 2.344 2.344 0 000-.399 2.19 2.19 0 00-.114-.374 2.36 2.36 0 00-.187-.35 1.628 1.628 0 00-.26-.31 2.051 2.051 0 00-1.832-.56c-.131.027-.26.068-.383.121-.121.05-.238.11-.35.18a1.954 1.954 0 00-.309.26 1.628 1.628 0 00-.252.309c-.075.11-.138.227-.188.35a2.19 2.19 0 00-.114.374 1.701 1.701 0 000 .4 1.628 1.628 0 000 .398c.028.117.066.232.114.342zM36.742 26.576a2.035 2.035 0 10-2.035-2.043c0 1.125.91 2.038 2.035 2.043zM43.864 25.314c.05.123.112.24.187.35a2.027 2.027 0 001.693.903c.133.016.267.016.399 0 .129-.023.255-.061.374-.114.124-.05.24-.112.35-.187a1.97 1.97 0 00.562-.561c.075-.11.138-.227.187-.35.112-.257.167-.534.163-.814a2.272 2.272 0 00-.04-.4 2.303 2.303 0 00-.31-.724 1.555 1.555 0 00-.252-.309 2.1 2.1 0 00-2.874 0 1.555 1.555 0 00-.252.31 2.23 2.23 0 00-.31.724 2.27 2.27 0 00-.04.399c.001.134.015.267.04.399.03.128.07.253.123.374zM29.18 43.953c.095-.095.183-.199.26-.309.071-.112.134-.229.188-.35.05-.123.088-.251.114-.382a1.978 1.978 0 000-.814 2.23 2.23 0 00-.114-.383 2.849 2.849 0 00-.187-.35 3.159 3.159 0 00-.26-.31 2.027 2.027 0 00-1.832-.553c-.131.026-.26.064-.383.114a2.092 2.092 0 00-.659.44 2.068 2.068 0 00-.44.66 2.23 2.23 0 00-.114.382 1.978 1.978 0 000 .814 1.994 1.994 0 00.554 1.041c.383.381.9.595 1.44.595a2.01 2.01 0 001.433-.595z"/>
    <circle cx="36.742" cy="42.488" r="2.035"/>
    <path d="M47.616 41.707a2.133 2.133 0 00-.44-.66 2.027 2.027 0 00-1.83-.553 2.1 2.1 0 00-.383.114c-.123.05-.24.112-.35.187a1.896 1.896 0 00-.31.253 2.132 2.132 0 00-.44.66 2.304 2.304 0 00-.113.382 1.978 1.978 0 000 .813c.05.263.152.512.301.733.073.112.157.216.252.31.093.096.197.18.31.252a2.035 2.035 0 00.733.301c.13.03.264.043.398.04a2.019 2.019 0 001.718-.895 2.124 2.124 0 00.309-.732c.045-.27.045-.545 0-.814a2.344 2.344 0 00-.155-.391z"/>
  </g>
</svg>
