<svg width="195" height="195" viewBox="0 0 195 195" fill="none" xmlns="http://www.w3.org/2000/svg">
<g clip-path="url(#clip0_2195_43761)">
<path d="M193.963 90.8911C193.704 87.2302 193.267 83.6017 192.635 80.0704C189.622 63.5801 182.445 48.5315 172.19 36.0747C168.221 31.2799 163.831 26.8577 159.036 22.889C146.935 12.9268 132.387 5.81554 116.397 2.6568C110.29 1.42569 103.972 0.793945 97.492 0.793945C91.0119 0.793945 84.6615 1.42569 78.5379 2.6568C62.5484 5.84794 47.9522 12.9754 35.8832 22.97C31.1852 26.8901 26.8435 31.2313 22.9555 35.9289C12.6361 48.4181 5.41087 63.4829 2.36526 80.0542C1.63626 84.1201 1.16646 88.2831 0.939659 92.5272C0.858659 94.1633 0.810059 95.8479 0.810059 97.5002C0.810059 99.1525 0.858659 100.837 0.939659 102.473C1.16646 107.074 1.71726 111.593 2.57586 115.983C5.71867 132.23 12.9439 147.02 23.1175 159.266C26.9569 163.883 31.2338 168.159 35.8508 171.998C48.098 182.138 62.8886 189.331 79.1373 192.441C85.0827 193.591 91.2225 194.206 97.492 194.206C103.761 194.206 109.869 193.607 115.798 192.473C132.014 189.363 146.805 182.203 159.068 172.079C163.783 168.191 168.14 163.85 172.045 159.12C182.137 146.89 189.298 132.182 192.44 115.983C193.202 112.111 193.704 108.143 193.979 104.109C194.125 101.922 194.206 99.7356 194.206 97.5002C194.206 95.2648 194.125 93.078 193.979 90.8911H193.963ZM151.519 135.891C147.226 141.966 141.929 147.295 135.854 151.588C131.577 154.649 126.96 157.192 122.019 159.152C114.437 162.214 106.143 163.866 97.4596 163.866C88.7763 163.866 80.4819 162.214 72.9003 159.169C67.9269 157.192 63.2613 154.617 58.9844 151.555C53.0066 147.311 47.7902 142.095 43.5458 136.118C40.5812 132.02 38.1188 127.614 36.1586 122.884C32.951 115.092 31.169 106.539 31.169 97.5974C31.169 88.6557 32.8052 80.7507 35.8184 73.186C37.7786 68.1968 40.3706 63.4991 43.4486 59.1741C47.7416 53.0996 53.0714 47.8026 59.1464 43.5099C63.3422 40.5294 67.9431 38.0186 72.7869 36.0747C80.4171 32.9808 88.7601 31.3123 97.4758 31.3123C106.191 31.3123 114.518 32.997 122.132 36.0747C126.976 37.9862 131.528 40.497 135.724 43.4775C141.896 47.8188 147.275 53.2129 151.616 59.4009C154.63 63.6449 157.141 68.2615 159.068 73.1536C162.082 80.7183 163.734 88.9473 163.734 97.5812C163.734 106.215 161.952 115.076 158.712 122.884C156.8 127.5 154.387 131.841 151.535 135.859L151.519 135.891Z" stroke="white" stroke-miterlimit="10"/>
<path d="M122.651 36.0904H122.116C114.502 32.9964 106.175 31.3279 97.4596 31.3279C88.744 31.3279 80.4172 33.0126 72.7708 36.0904H72.2686L78.5218 2.67242C84.6454 1.44132 90.9958 0.80957 97.4758 0.80957C103.956 0.80957 110.29 1.44132 116.381 2.67242L122.635 36.0904H122.651Z" stroke="white" stroke-miterlimit="10"/>
<path d="M122.019 159.136L115.798 192.456C109.869 193.59 103.745 194.19 97.492 194.19C91.2388 194.19 85.0827 193.59 79.1373 192.424L72.9165 159.152C80.4981 162.197 88.7926 163.85 97.4758 163.85C106.159 163.85 114.453 162.197 122.035 159.136H122.019Z" stroke="white" stroke-miterlimit="10"/>
<path d="M172.191 36.091L151.6 59.4172C147.259 53.2454 141.88 47.8351 135.708 43.4938L159.036 22.9053C163.831 26.874 168.222 31.2962 172.191 36.091V36.091Z" stroke="white" stroke-miterlimit="10"/>
<path d="M58.9842 151.556L35.8343 171.998C31.2173 168.159 26.9405 163.883 23.1011 159.266L43.5455 136.118C47.7899 142.095 53.0064 147.311 58.9842 151.556Z" stroke="white" stroke-miterlimit="10"/>
<path d="M172.044 159.12C168.124 163.833 163.782 168.191 159.068 172.079L135.87 151.587C141.945 147.295 147.242 141.965 151.535 135.891L172.044 159.12Z" stroke="white" stroke-miterlimit="10"/>
<path d="M59.1466 43.5263C53.0715 47.8189 47.7417 53.1159 43.4487 59.1904L22.9395 35.9453C26.8275 31.2477 31.1691 26.9064 35.8671 22.9863L59.1466 43.5263V43.5263Z" stroke="white" stroke-miterlimit="10"/>
<path d="M193.963 90.8913V104.093C193.688 108.143 193.186 112.095 192.424 115.967L158.696 122.9C161.936 115.092 163.718 106.555 163.718 97.5976C163.718 88.6397 162.065 80.7185 159.052 73.1699L192.619 80.0706C193.251 83.6181 193.704 87.2304 193.947 90.8913H193.963Z" stroke="white" stroke-miterlimit="10"/>
<path d="M36.1584 122.884L2.57566 115.983C1.71706 111.593 1.16625 107.074 0.939453 102.473V92.5272C1.16625 88.2831 1.63606 84.1201 2.36506 80.0542L35.8182 73.2021C32.805 80.7669 31.1687 88.9959 31.1687 97.6136C31.1687 106.231 32.9507 115.108 36.1584 122.9V122.884Z" stroke="white" stroke-miterlimit="10"/>
<path d="M162.924 65.4432L175.349 68.521L179.221 62.3655L173.729 52.873L166.472 53.1484L162.924 65.4432Z" stroke="white" stroke-miterlimit="10"/>
<path d="M169.517 98.5205L178.8 88.7041L185.28 92.446V104.579L178.8 108.337L169.517 98.5205Z" stroke="white" stroke-miterlimit="10"/>
<path d="M162.924 130.561L175.349 127.483L179.221 133.639L173.729 143.148L166.472 142.856L162.924 130.561Z" stroke="white" stroke-miterlimit="10"/>
<path d="M31.9789 130.561L19.5535 127.483L15.6816 133.639L21.1735 143.148L28.4473 142.856L31.9789 130.561Z" stroke="white" stroke-miterlimit="10"/>
<path d="M25.2723 98.44L16.0545 107.317L9.62305 103.915V92.9486L16.0545 89.5469L25.2723 98.44Z" stroke="white" stroke-miterlimit="10"/>
<path d="M31.9789 65.4432L19.5535 68.521L15.6816 62.3655L21.1735 52.873L28.4473 53.1484L31.9789 65.4432Z" stroke="white" stroke-miterlimit="10"/>
<path d="M64.8813 32.1221L67.9755 19.7139L61.8195 15.8262L52.3101 21.3175L52.5855 28.5908L64.8813 32.1221Z" stroke="white" stroke-miterlimit="10"/>
<path d="M97.0222 25.4155L88.1445 16.1985L91.5465 9.76758H102.514L105.9 16.1985L97.0222 25.4155Z" stroke="white" stroke-miterlimit="10"/>
<path d="M130.021 32.1221L126.927 19.7139L133.083 15.8262L142.593 21.3175L142.317 28.5908L130.021 32.1221Z" stroke="white" stroke-miterlimit="10"/>
<path d="M130.021 163.057L126.943 175.481L133.099 179.353L142.609 173.877L142.317 166.604L130.021 163.057Z" stroke="white" stroke-miterlimit="10"/>
<path d="M97.8967 169.778L106.774 178.979L103.372 185.426H92.4049L89.019 178.979L97.8967 169.778Z" stroke="white" stroke-miterlimit="10"/>
<path d="M64.8974 163.057L67.9916 175.481L61.8356 179.353L52.3262 173.877L52.6016 166.604L64.8974 163.057Z" stroke="white" stroke-miterlimit="10"/>
</g>
</svg>
