<svg xmlns="http://www.w3.org/2000/svg" viewBox="0 0 12 12">
  <path fill="#8E9AB5" fill-rule="nonzero" d="M6.833466 3.301461c-.237375-.237374-.24071-.621193-.007497-.862657L8.672123.59265a.6153668.6153668 0 0 1 .200616-.133538c.229401-.095888.494162-.043179.670153.132923l1.846154 1.846153c.159974.154508.224131.38331.167814.598467-.056317.215156-.224345.383184-.439501.439501-.215157.056317-.443959-.00784-.598467-.167814L9.7232 2.51265v8.360615c0 .339868-.275517.615385-.615384.615385-.339868 0-.615385-.275517-.615385-.615385V2.51265l-.796308.796308c-.241464.233213-.625283.229878-.862657-.007497ZM.672739 9.462188c-.233214-.241463-.229879-.625282.007496-.862657s.621194-.24071.862657-.007496l.795693.795692V1.027112c0-.339868.275517-.615385.615384-.615385.339868 0 .615385.275517.615385.615385v8.360615l.796308-.796308c.241464-.233213.625283-.229878.862657.007496.237375.237375.24071.621194.007497.862658l-1.846154 1.846154a.6153668.6153668 0 0 1-.200616.133538c-.229401.095888-.494162.043179-.670154-.132923Z"/>
</svg>
