<svg xmlns="http://www.w3.org/2000/svg" viewBox="0 0 7.408 7.393" height="27.942" width="28">
  <g fill="none">
    <path d="M4.563 7.393a.492.492 0 01-.443-.268L3.135 5.26a.246.246 0 01.436-.23l.984 1.865L6.91.514.508 2.836 2.92 4.13l2.048-2.049a.247.247 0 11.35.35l-2.18 2.176a.246.246 0 01-.287.045L.284 3.289a.492.492 0 01.061-.916L6.725.039a.492.492 0 01.645.645l-2.334 6.38a.492.492 0 01-.439.329z" fill="#fff"/>
    <path d="M2.92 4.13l2.05-2.048a.247.247 0 11.349.35l-2.18 2.176a.246.246 0 01-.287.045z" fill="#13cdc2"/>
  </g>
</svg>
