<svg xmlns="http://www.w3.org/2000/svg" viewBox="0 0 6.615 6.617" height="25.007" width="25">
  <g fill="none" fill-rule="evenodd">
    <path d="M.281 4.595c.15 0 .27.121.27.27v.65c0 .303.247.55.551.55H2.12c.149 0 .27.121.27.27v.011a.27.27 0 01-.265.27H1.102A1.102 1.102 0 010 5.515v-.649c0-.149.12-.27.27-.27zm6.058 0c.152 0 .276.124.276.276v.643c0 .609-.494 1.103-1.103 1.103h-1.01a.276.276 0 010-.552h1.01a.551.551 0 00.551-.55V4.87c0-.152.124-.276.276-.276zM5.512.002c.61 0 1.103.493 1.103 1.102v.643a.276.276 0 01-.552 0v-.643a.551.551 0 00-.55-.55h-.92a.277.277 0 010-.552zM2.053 0l.032.002a.278.278 0 11-.064.551h-.919a.551.551 0 00-.55.551v.643a.276.276 0 01-.552 0v-.643C0 .495.494.002 1.102.002h.92a.263.263 0 01.063 0z" fill="#fff"/>
    <path d="M1.19 3.307h4.234" stroke="#13cdc2" stroke-width=".52916" stroke-linecap="round"/>
  </g>
</svg>
