<svg xmlns="http://www.w3.org/2000/svg" width="240" height="196"><g fill="none" fill-rule="nonzero"><path fill="#FFF" d="M119.864 0 0 134.364l79.636 60.863H160l79.727-60.863L119.864 0Zm1.363 170.455h-2.682c-25.318-.728-47.181-20.637-47.181-46.046 0-8.5 3.909-20.318 7.863-27.182 10.137-20 30.318-46.682 37.455-66.09l2.045-5.728c.364-1.045 1.864-1.045 2.228 0l2 5.591c.045.09.045.182.09.273v.045c7.182 19.364 27.273 45.955 37.41 65.864 3.954 6.863 7.863 18.682 7.863 27.182.046 25.454-21.818 45.363-47.09 46.09"/><path fill="#13CDC2" d="M121.227 170.455h-2.682c-21.863-.637-41.181-15.591-46-36.091H0l79.636 60.863H160l79.727-60.863h-72.5c-4.818 20.5-24.136 35.454-46 36.09Z"/></g></svg>