<?xml version="1.0" encoding="utf-8"?>
<svg width="32px" height="32px" viewBox="0 0 32 32" version="1.1" xmlns:xlink="http://www.w3.org/1999/xlink" xmlns="http://www.w3.org/2000/svg">
  <defs>
    <linearGradient x1="0.5" y1="0.77386045" x2="1" y2="-1.1713569" id="gradient_1">
      <stop offset="0" stop-color="#FCC538" />
      <stop offset="1" stop-color="#F7931A" />
    </linearGradient>
    <rect width="32" height="32" id="artboard_1" />
    <clipPath id="clip_1">
      <use xlink:href="#artboard_1" clip-rule="evenodd" />
    </clipPath>
  </defs>
  <g id="Icon--brand--bitcoin" clip-path="url(#clip_1)">
    <path d="M31.5211 19.8706C29.3839 28.442 20.7014 33.6585 12.128 31.521C3.55811 29.384 -1.65895 20.7021 0.479281 12.1312C2.61551 3.55876 11.2979 -1.65819 19.8688 0.478793C28.4418 2.61577 33.6583 11.2987 31.5211 19.8706Z" id="Shape" fill="url(#gradient_1)" stroke="none" />
    <path d="M14.6283 8.04037C14.9335 5.93885 13.3803 4.80912 11.2565 4.05547L11.9455 1.2087L10.2634 0.776843L9.59269 3.5486C9.15049 3.43509 8.69632 3.32799 8.24503 3.22187L8.92053 0.431854L7.23943 0L6.55003 2.84579C6.18401 2.75991 5.8247 2.67502 5.47592 2.58569L5.47784 2.57681L3.15812 1.98011L2.71065 3.83091C2.71065 3.83091 3.95867 4.12556 3.93232 4.14382C4.61357 4.31903 4.7367 4.78346 4.7161 5.15164L3.93136 8.39474C3.97831 8.40708 4.03915 8.42485 4.10622 8.45248C4.05017 8.43817 3.99029 8.42238 3.92848 8.40708L2.82851 12.9502C2.74515 13.1634 2.53387 13.4832 2.05766 13.3618C2.07443 13.387 0.835043 13.0474 0.835043 13.0474L0 15.031L2.18893 15.5931C2.59615 15.6982 2.99523 15.8083 3.38808 15.912L2.69197 18.7913L4.37212 19.2232L5.06152 16.3744C5.52048 16.5027 5.96603 16.6212 6.40199 16.7327L5.71499 19.5681L7.39705 20L8.09316 17.1261C10.9614 17.6853 13.1183 17.4597 14.0261 14.7872C14.7577 12.6353 13.9897 11.394 12.4806 10.5846C13.5796 10.3235 14.4075 9.57876 14.6283 8.04037L14.6283 8.04037ZM10.7851 13.5923C10.2653 15.7441 6.74837 14.5809 5.60815 14.2892L6.53182 10.4745C7.67204 10.7677 11.3284 11.3481 10.7851 13.5923ZM11.3054 8.00928C10.8311 9.96669 7.90392 8.97219 6.95438 8.72838L7.79181 5.26861C8.74136 5.51242 11.7993 5.96748 11.3054 8.00928L11.3054 8.00928Z" transform="translate(8 5.3333335)" id="Shape" fill="#EAEAEB" stroke="none" />
  </g>
</svg>