<?xml version="1.0" encoding="utf-8"?>
<svg width="32px" height="32px" viewBox="0 0 32 32" version="1.1" xmlns:xlink="http://www.w3.org/1999/xlink" xmlns="http://www.w3.org/2000/svg">
  <defs>
    <linearGradient x1="0.5" y1="0" x2="0.5" y2="1" id="gradient_1">
      <stop offset="0" stop-color="#5A92E2" />
      <stop offset="1" stop-color="#0A51B6" />
    </linearGradient>
    <rect width="32" height="32" id="slice_1" />
    <clipPath id="clip_1">
      <use xlink:href="#slice_1" clip-rule="evenodd" />
    </clipPath>
  </defs>
  <g id="Wallet_addAsset" clip-path="url(#clip_1)">
    <use xlink:href="#slice_1" stroke="none" fill="none" />
    <g id="Icon--brand--btse" clip-path="url(#clip_1)">
      <g id="liquid_bitcoin_icon-copy" transform="translate(3.0435581 0.029033547)">
        <g id="ToW2Wx">
          <path d="M11.9552 31.8879C6.80591 31.6632 2.03278 28.0528 0.572014 23.1429C-0.561421 19.3468 0.0492663 15.6974 1.87644 12.2287C3.21018 9.70288 5.13018 7.6412 7.13324 5.6528C8.88224 3.91845 10.7143 2.26226 12.3216 0.391119C12.5806 0.0931039 12.7955 -0.243995 13.2157 0.254325C15.248 2.67753 17.681 4.71478 19.8502 7.01097C21.8679 9.15081 23.6462 11.4421 24.6868 14.2317C27.0221 20.5096 25.0532 27.3004 18.6483 30.5981C16.5818 31.6534 14.6813 32.054 11.9552 31.8879Z" id="Path" fill="url(#gradient_1)" stroke="none" />
        </g>
      </g>
      <path d="M7.73914e-16 0.00565305C2.37007 0.00565305 4.73143 -0.0208849 7.1015 0.041037C7.86849 0.0587624 8.62763 0.202145 9.34958 0.465644C10.5608 0.916789 11.284 1.85446 11.3885 3.19021C11.5018 4.60556 10.9877 5.72016 9.74169 6.44553L9.48029 6.60476C9.45675 6.63814 9.43633 6.67368 9.41929 6.71091L9.99438 6.97629C11.2753 7.55128 11.9636 8.54203 11.9985 9.97508C12.0333 11.4435 11.467 12.5758 10.1687 13.2923C9.34587 13.7397 8.42695 13.9736 7.49361 13.9735C4.99284 14 2.50077 13.9912 0 14L7.73914e-16 0.00565305ZM3 8.00445L3 10.9869C4.25686 10.9869 5.47675 11.027 6.70588 10.9669C7.25114 10.9369 7.74094 10.6166 7.92578 9.9861C8.21227 9.01529 7.64853 8.16458 6.59499 8.07451C5.66158 8.00445 4.71894 8.02446 3.78554 8.00445C3.52677 7.99444 3.27725 8.00445 3 8.00445ZM3 3.02099L3 5.96754C4.26577 5.96754 5.48935 6.05326 6.70238 5.94611C7.62006 5.87111 8.01034 5.30323 7.99979 4.48891C7.98924 3.70673 7.54622 3.11742 6.66019 3.05314C5.4577 2.9567 4.24467 3.02099 3 3.02099Z" transform="translate(10 12)" id="Shape" fill="#FFFFFF" stroke="none" />
    </g>
  </g>
</svg>