<svg xmlns="http://www.w3.org/2000/svg" viewBox="0 0 18 21">
  <g fill="none">
    <path fill="#46BEAE" d="M8.1188667 20.8984293c-3.3716432-.1471495-6.496971-2.5111384-7.4534428-5.7260354-.7421453-2.4855472-.3422825-4.8751273.854107-7.146348.8733004-1.6538327 2.130469-3.0037695 3.442019-4.3057228C6.106757 2.5847127 7.3063454 1.5002848 8.3587843.2751051c.1695419-.195133.3102936-.4158573.5853992-.0895692 1.3307434 1.5866556 2.9237968 2.920598 4.3441095 4.424082 1.3211467 1.4011194 2.4855472 2.9014046 3.1669135 4.727978 1.5290753 4.1105896.2399176 8.557064-3.9538435 10.7163231-1.3531357.690963-2.5975088.953273-4.3824963.8445103Z"/>
    <path fill="#FFF" d="M12.2326552 11.3049208c.1279561-.886096-.4830343-1.8233744-1.6698271-2.229635l.3102936-1.2539697-.9404774-.23352-.3006968 1.215583c-.2463155-.0607791-.5022277-.1183594-.751742-.1759396l.3038957-1.2251797-.9404774-.2335199-.3102935 1.2539698-1.701816-.4190562-.2495145 1.0044554s.6973608.159945.6813662.1695418c.3806694.095967.4478464.3454815.4382497.5470123l-1.04924 4.2257502c-.0479836.1151604-.163144.2879012-.428653.2239231.0095968.0127956-.684565-.1695418-.684565-.1695418l-.463841 1.0748312 1.6986173.428653-.3390837 1.3691302.9372784.2335199.3358848-1.3531358c.2559122.0703759.5054266.1343539.7485432.1919342l-.3358848 1.3467379.9404773.2367188.3390837-1.3659313c1.6026501.3006968 2.8214319-.1151605 3.1189299-1.3179479.2431166-.982063.0255912-1.7018161-.6749684-2.229635.4638408-.1503484.8892948-.620587.9884608-1.3147489Zm-1.9257393 2.9397914c-.2879012 1.1675994-2.2520273.5374156-2.8886089.3806694l.5118244-2.0696899c.6365816.1599451 2.6774814.4734375 2.3767845 1.6890205Zm.2879013-3.0261617c-.2655089 1.0620356-1.9001481.52462-2.431166.393465l.463841-1.8745569c.5342167.131155 2.2392317.3742716 1.967325 1.4810919Z"/>
  </g>
</svg>
