<?xml version="1.0" encoding="utf-8"?>
<svg width="32px" height="32px" viewBox="0 0 32 32" version="1.1" xmlns:xlink="http://www.w3.org/1999/xlink" xmlns="http://www.w3.org/2000/svg">
  <defs>
    <rect width="32" height="32" id="slice_1" />
    <clipPath id="clip_1">
      <use xlink:href="#slice_1" clip-rule="evenodd" />
    </clipPath>
  </defs>
  <g id="Wallet_addAsset" clip-path="url(#clip_1)">
    <use xlink:href="#slice_1" stroke="none" fill="none" />
    <g id="Icon--brand--liquid-cad" clip-path="url(#clip_1)">
      <g id="liquid_bitcoin_icon-copy" transform="translate(3.0435581 0.029033547)">
        <g id="ToW2Wx">
          <path d="M11.9552 31.8879C6.80591 31.6632 2.03278 28.0528 0.572014 23.1429C-0.561421 19.3468 0.0492663 15.6974 1.87644 12.2287C3.21018 9.70288 5.13018 7.6412 7.13324 5.6528C8.88224 3.91845 10.7143 2.26226 12.3216 0.391119C12.5806 0.0931039 12.7955 -0.243995 13.2157 0.254325C15.248 2.67753 17.681 4.71478 19.8502 7.01097C21.8679 9.15081 23.6462 11.4421 24.6868 14.2317C27.0221 20.5096 25.0532 27.3004 18.6483 30.5981C16.5818 31.6534 14.6813 32.054 11.9552 31.8879Z" id="Path" fill="#FF0000" stroke="none" />
        </g>
      </g>
      <g id="Flag_of_Canada_(leaf)" transform="translate(8 11)">
        <path d="M7.18996 16L7.37276 12.5737C7.37814 12.4596 7.3303 12.3492 7.24267 12.2736C7.15504 12.198 7.03707 12.1653 6.92186 12.1846L3.4325 12.7841L3.9037 11.5136C3.9429 11.41 3.91023 11.2935 3.82246 11.2238L0 8.19851L0.861171 7.80546C0.981513 7.74988 1.04071 7.61544 0.999283 7.49181L0.243728 5.22084L2.4454 5.67742C2.56838 5.70248 2.6924 5.63938 2.74194 5.52655L3.16846 4.54591L4.88674 6.34839C4.96744 6.43158 5.09462 6.45277 5.19896 6.4004C5.30331 6.34803 5.35979 6.23466 5.33763 6.12208L4.50896 1.94541L5.83728 2.69578C5.90031 2.73189 5.97584 2.74086 6.04589 2.72054C6.11594 2.70023 6.17424 2.65245 6.20693 2.58859L7.55556 0L8.90418 2.58859C8.93687 2.65245 8.99517 2.70023 9.06522 2.72054C9.13527 2.74086 9.2108 2.73189 9.27384 2.69578L10.6021 1.94541L9.77348 6.12208C9.75132 6.23466 9.8078 6.34803 9.91215 6.4004C10.0165 6.45277 10.1437 6.43158 10.2244 6.34839L11.9427 4.54591L12.3692 5.52655C12.4187 5.63938 12.5427 5.70248 12.6657 5.67742L14.8674 5.22084L14.1118 7.49181C14.0704 7.61544 14.1296 7.74988 14.2499 7.80546L15.1111 8.19851L11.2886 11.2238C11.2009 11.2935 11.1682 11.41 11.2074 11.5136L11.6786 12.7841L8.18925 12.1846C8.07404 12.1653 7.95607 12.198 7.86844 12.2736C7.78081 12.3492 7.73297 12.4596 7.73835 12.5737L7.92115 16L7.18996 16Z" id="Path" fill="#FFFFFF" stroke="none" />
      </g>
    </g>
  </g>
</svg>