<svg width="76" height="62" viewBox="0 0 76 62" fill="none" xmlns="http://www.w3.org/2000/svg">
<path fill-rule="evenodd" clip-rule="evenodd" d="M16.5493 0H60.3408C61.4095 0 62.3388 0.557721 62.8498 1.44078L75.604 23.3546C76.3009 24.47 76.0454 25.9108 75.0929 26.8636L39.99 61.1634C38.8748 62.2789 37.0395 62.2789 35.8547 61.1634L0.844721 26.91C-0.0845431 25.9805 -0.270396 24.47 0.40332 23.3313L14.0403 1.37106C14.5514 0.488006 15.4806 0 16.5493 0Z" fill="#009393"/>
<path fill-rule="evenodd" clip-rule="evenodd" d="M42.2806 20.4789V16.1889H55.0274V10H21.0202V16.1889H33.7669V20.4789C24.8014 20.9243 18.0713 22.8232 18 25.0971V29.8326C18.0713 32.1065 24.7776 34.0054 33.7669 34.4508V45H42.2331V34.4508C51.1986 34.0054 57.9287 32.1065 58 29.8326V25.0971C58 22.8232 51.2699 20.9243 42.3044 20.4789H42.2806ZM38 31.1453C28.4637 31.1453 20.4495 29.5747 18.4756 27.4179C20.1403 25.5894 26.157 24.2063 33.7907 23.8078V28.2853C35.1463 28.3557 36.5493 28.4025 38.0238 28.4025C39.4982 28.4025 40.9013 28.3322 42.2568 28.2853V23.8078C49.8668 24.1829 55.9073 25.6363 57.5719 27.4179C55.6457 29.5747 47.6552 31.1453 38.0476 31.1453H38Z" fill="white"/>
</svg>
